<svg xmlns="http://www.w3.org/2000/svg" xmlns:xlink="http://www.w3.org/1999/xlink" x="0px" y="0px" viewBox="0 0 83 83" style="enable-background:new 0 0 83 83;" xml:space="preserve">	<path d="M82.8,29.8l-9.7-7.5v-8.4c0-3.8-3.1-6.9-6.9-6.9H53.3l-7.1-5.5c-2.5-1.9-6-1.9-8.5,0l-7.1,5.5H17.8 c-3.8,0-6.9,3.1-6.9,6.9v8.4l-9.7,7.5c-0.4,0.3-0.7,0.8-0.7,1.4v45c0,2,0.8,3.8,2.3,5.1C4.1,82.4,5.7,83,7.4,83h69.2 c3.8,0,6.9-3.1,6.9-6.9v-45C83.5,30.6,83.3,30.1,82.8,29.8 M79.7,77.5L52.2,56.2l27.9-21.5v41.4C80.1,76.6,79.9,77.1,79.7,77.5  M78.9,31.1l-5.8,4.5v-9L78.9,31.1z M39.9,4.2c1.2-1,3-1,4.3,0l3.5,2.7H36.3L39.9,4.2z M17.8,10.4h48.4c1.9,0,3.5,1.5,3.5,3.5v24.5 L44.1,58.1c-1.2,1-3,1-4.2,0L14.3,38.3V13.8C14.3,11.9,15.9,10.4,17.8,10.4 M4.3,77.5C4.1,77.1,4,76.6,4,76.1V34.6l27.9,21.6 L4.3,77.5z M10.9,35.6l-5.8-4.5l5.8-4.5V35.6z M7.4,79.5c0,0-0.1,0-0.1,0l27.3-21.2l3.1,2.4c2.5,1.9,6,1.9,8.5,0l3.1-2.4l27.3,21.2 c0,0-0.1,0-0.1,0H7.4z"></path>	<path d="M41.8,46.7L41.8,46.7c1,0,1.8-0.8,1.8-1.7c0-1-0.8-1.7-1.7-1.7c-5.7-0.1-10.3-4.8-10.2-10.6 C31.8,27,36.4,22.5,42,22.5c0.1,0,0.1,0,0.2,0c5.7,0.1,10.3,4.8,10.2,10.6c0,1.4-0.4,2.3-1.2,2.7c-1.2,0.5-2.6,0.4-3.7-0.2l0.1-6.9 c0-0.6-0.3-1.3-0.9-1.6c-2.6-1.4-6.5-1.1-8.6,1.7c-1.3,1.8-1.8,4.1-1.4,6.3c0.3,1.5,1.3,2.9,2.7,3.6c2,0.9,4.3,0.9,6.3-0.2 c2.1,1,4.9,1.5,7.2,0.3c1.1-0.6,3-2.1,3.1-5.7c0.1-7.6-6-13.9-13.6-14.1H42c-7.6,0-13.8,6.2-13.8,13.9 C28.2,40.4,34.2,46.5,41.8,46.7 M44,35.5c-0.9,0.5-2,0.6-3,0.2c-0.5-0.3-0.8-0.7-0.9-1.3c-0.2-1.2,0.1-2.5,0.8-3.5 c0.6-0.7,1.5-1.1,2.4-1.1c0.3,0,0.5,0,0.8,0.1L44,35.5z"></path></svg>