<svg xmlns="http://www.w3.org/2000/svg" xmlns:xlink="http://www.w3.org/1999/xlink" x="0px"
	 y="0px" viewBox="0 0 82.9 30" style="enable-background:new 0 0 82.9 30;" xml:space="preserve">
<style type="text/css">
	.brands05{fill:currentcolor;}
</style>
<g>
	<path class="brands05" d="M5.7,25.7l0.6,1.4h0l-0.2-0.5H5.3l-0.2,0.5h0L5.7,25.7L5.7,25.7z M6.1,26.6l-0.3-0.9l0,0
		l-0.4,0.9H6.1z"/>
	<path class="brands05" d="M12,25.7l0.6,1.4l0,0l0.6-1.4h0.1v1.4l0,0v-1.4l0,0l-0.6,1.4h-0.1L12,25.7L12,25.7v1.4l0,0
		V25.7L12,25.7z"/>
	<path class="brands05" d="M17.2,25.9c0.2,0.3,0.2,0.7,0,1.1c-0.2,0.3-0.7,0.3-0.9,0l0,0c-0.2-0.3-0.2-0.7,0-1.1
		C16.4,25.6,16.8,25.6,17.2,25.9C17.1,25.8,17.1,25.8,17.2,25.9 M16.2,25.9c-0.2,0.3-0.2,0.7,0,1s0.6,0.3,0.9,0l0,0
		c0.2-0.3,0.2-0.7,0-1S16.5,25.6,16.2,25.9L16.2,25.9"/>
	<path class="brands05" d="M20.5,25.7c0.2,0,0.4,0.1,0.5,0.2s0.2,0.3,0.1,0.5c0,0.2-0.1,0.4-0.2,0.5s-0.3,0.2-0.5,0.2H20
		v-1.4C20,25.7,20.5,25.7,20.5,25.7z M20,27.1h0.4c0.2,0,0.3-0.1,0.5-0.2c0.1-0.1,0.2-0.3,0.2-0.5s0-0.3-0.1-0.5
		c-0.1-0.1-0.3-0.2-0.5-0.2H20V27.1z"/>
	<path class="brands05" d="M24.7,25.7L24.7,25.7h-0.9v0.6h0.9l0,0h-0.9V27h1l0,0h-1v-1.4L24.7,25.7L24.7,25.7z"/>
	<path class="brands05" d="M28,25.7c0.1,0,0.2,0,0.3,0.1c0.1,0.1,0.1,0.2,0.1,0.3c0,0.1,0,0.2-0.1,0.2
		c-0.1,0.1-0.1,0.1-0.2,0.1l0,0c0.1,0,0.3,0.1,0.3,0.3v0.2c0,0.1,0,0.1,0.1,0.2h-0.1c0-0.1,0-0.1,0-0.2v-0.2c0-0.1,0-0.2-0.1-0.2
		s-0.2-0.1-0.2-0.1h-0.5v0.7l0,0v-1.4H28z M27.5,26.4H28c0.1,0,0.2,0,0.3-0.1c0.1-0.1,0.1-0.1,0.1-0.2s0-0.2-0.1-0.2
		c-0.1-0.1-0.2-0.1-0.3-0.1h-0.5V26.4z"/>
	<path class="brands05" d="M31.2,25.7l1,1.4l0,0v-1.4l0,0v1.4h-0.1L31.2,25.7L31.2,25.7v1.4l0,0V25.7L31.2,25.7z"/>
	<path class="brands05" d="M38.5,25.7l0.6,1.4H39l-0.2-0.5h-0.7l-0.2,0.5h-0.1L38.5,25.7L38.5,25.7z M38.8,26.6l-0.3-0.9
		l0,0l-0.4,0.9H38.8z"/>
	<path class="brands05" d="M41.7,25.7v1.4h0.9l0,0h-1L41.7,25.7L41.7,25.7z"/>
	<path class="brands05" d="M45.8,25.7c0.3,0,0.4,0.1,0.4,0.4s-0.2,0.4-0.4,0.4h-0.5v0.6l0,0v-1.4H45.8z M45.3,26.4h0.5
		c0.1,0,0.2,0,0.3-0.1s0.1-0.2,0.1-0.3c0-0.1,0-0.2-0.1-0.3c-0.1-0.1-0.2-0.1-0.3-0.1h-0.5V26.4z"/>
	<path class="brands05" d="M48.9,25.7v0.7h1v-0.7l0,0v1.4l0,0v-0.7h-1v0.7l0,0V25.7L48.9,25.7z"/>
	<path class="brands05" d="M53.2,25.7l0.6,1.4h-0.1l-0.2-0.5h-0.7l-0.2,0.5h-0.1L53.2,25.7L53.2,25.7z M53.5,26.6
		l-0.3-0.9l0,0l-0.4,0.9H53.5z"/>
	<path class="brands05" d="M56.9,25.7c0.1,0,0.2,0,0.3,0.1s0.1,0.2,0.1,0.3c0,0.1,0,0.2-0.1,0.2c0,0.1-0.1,0.1-0.2,0.1
		c0.1,0,0.2,0.1,0.2,0.1c0.1,0.1,0.1,0.2,0.1,0.2c0,0.1,0,0.2-0.1,0.3c-0.1,0.1-0.2,0.1-0.3,0.1h-0.6v-1.4
		C56.3,25.7,56.9,25.7,56.9,25.7z M56.4,26.3H57c0.1,0,0.2,0,0.3-0.1s0.1-0.1,0.1-0.2s0-0.2-0.1-0.2c-0.1-0.1-0.2-0.1-0.3-0.1h-0.6
		V26.3z M56.4,27.1H57c0.1,0,0.2,0,0.3-0.1s0.1-0.2,0.1-0.3c0-0.1,0-0.2-0.1-0.3c-0.1-0.1-0.2-0.1-0.3-0.1h-0.6V27.1z"/>
	<path class="brands05" d="M61,25.7L61,25.7h-0.9v0.6H61l0,0h-0.9V27h1l0,0h-1v-1.4L61,25.7L61,25.7z"/>
	<path class="brands05" d="M64.8,25.7L64.8,25.7h-0.6v1.4l0,0v-1.4h-0.6l0,0H64.8z"/>
	<path class="brands05" d="M3.1,2.5v6.6C3.2,9,3.4,8.9,3.6,8.8C4,8.5,4.5,8.3,5,8.1c0.7-0.2,1.4-0.4,2.2-0.4
		c1.9-0.1,3.8,0.7,5.1,2.1c1.3,1.3,2.1,3.1,2.1,5s-0.7,3.7-2.1,5C10.9,21.3,9,22,7.1,22s-3.7-0.7-5-1.9c-1.4-1.4-2.2-3.3-2.1-5.3V0
		L3.1,2.5z M7.1,10.8c-2.2,0-4,1.7-4,3.9c0,0.1,0,0.1,0,0.2c-0.1,2.2,1.6,4,3.8,4.1C7,19,7,19,7.1,19c2.2,0,4-1.8,4-4v-0.1
		c0.1-2.2-1.6-4-3.8-4.1C7.3,10.8,7.2,10.8,7.1,10.8"/>
	<path class="brands05" d="M52.4,21.8v-1.1c-0.2,0.1-0.3,0.2-0.5,0.4c-1.1,0.6-2.3,0.9-3.5,0.9c-3.9,0-7.1-3.2-7.1-7.1
		s3.2-7.1,7.1-7.1l0,0c1.9,0,3.7,0.7,5,1.9c1.4,1.4,2.2,3.3,2.1,5.3v6.8H52.4z M48.4,19c2.3,0.1,4.1-1.7,4.2-4s-1.7-4.1-4-4.2
		c-2.3-0.1-4.1,1.7-4.2,4v0.1c-0.1,2.2,1.6,4,3.8,4.1C48.3,19,48.3,19,48.4,19"/>
	<path class="brands05" d="M58.2,21.8V0l3.1,2.5v19.4h-3.1V21.8z"/>
	<path class="brands05" d="M64.4,21.8V0l3.1,2.5v19.4h-3.1V21.8z"/>
	<path class="brands05" d="M20,21.8h-3.1v-8.3c0-4,2.2-5.6,5.3-5.6h0.7v3h-0.6c-1.6,0-2.3,0.9-2.3,2.6L20,21.8z"/>
	<path class="brands05" d="M79.7,15.4V7.9l3.1,2.5v13c0,4.1-2.4,6.5-5.9,6.5c-1.7,0-3.3-0.6-4.5-1.7
		c-1.2-1.2-1.8-2.8-1.8-4.5h3.1c0,1.9,1.1,3.4,3.1,3.4c1.9,0,2.9-1.4,2.9-3.7V21c-0.9,0.6-2,0.9-3.1,0.9c-1.5,0-2.9-0.6-4-1.7
		c-1.2-1.4-1.7-3.1-1.6-4.9V7.9l3.1,2.5v5c0,2.3,1.1,3.6,2.8,3.6S79.7,17.8,79.7,15.4"/>
	<path class="brands05" d="M36.1,16.4L36.1,16.4l-0.2,0.5c-1.1,2-3.6,2.7-5.5,1.6c-0.6-0.3-1.1-0.8-1.5-1.4l10.3-2.7
		c-0.3-1.3-0.6-4.1-3.6-5.8C34,7.7,32.2,7.5,30.4,8c-3.8,1-6.1,4.9-5.1,8.7l0,0c0.9,3.8,4.8,6,8.5,5.1c0.1,0,0.1,0,0.2,0
		c1.6-0.4,3-1.4,4-2.7c0.3-0.5,0.6-1.1,0.8-1.7c0.1-0.4,0.2-0.7,0.3-0.9L36.1,16.4z M28.2,14.4c0.2-2.2,2.1-3.8,4.3-3.7
		c1.2,0.1,2.3,0.7,3,1.7L28.2,14.4z"/>
</g>
</svg>
