<svg xmlns="http://www.w3.org/2000/svg"
	xmlns:xlink="http://www.w3.org/1999/xlink" x="0px" y="0px" viewBox="0 0 146 30" style="enable-background:new 0 0 146 30;" xml:space="preserve">
	<style type="text/css">
	.brands01{fill:currentcolor;}
	</style>
	<g>
		<path class="brands01" d="M49.8,1.9c-0.6,0.5-1.1,1.1-1.6,1.7c-1.9,2.7-2.5,6.3-2.5,9.6c0,2.9,0.5,5.8,1.5,8.6
		c0.8,2.3,2.2,4.4,4.1,6c1.1,0.9,2.3,1.6,3.7,1.9h0.1V30H55c-2.4-0.1-4.8-0.8-6.9-2c-2.2-1.3-4-3.2-5.2-5.5S41,17.6,41.1,15
		c-0.1-2.9,0.8-5.8,2.4-8.2c1.6-2.2,3.7-4,6.2-5.1h0.1l0.1-0.1L50,1.8L49.8,1.9z M62.5,28.3c1.6-1.2,2.8-2.9,3.5-4.8
		c0.9-2.4,1.3-4.9,1.2-7.4c0-2.8-0.4-5.5-1.4-8.1c-0.8-2.2-2.2-4.2-4.1-5.7c-1.3-1-2.7-1.6-4.3-1.9h-0.1V0.1h0.1
		c2.7,0,5.3,0.7,7.6,2.1c2.2,1.3,3.9,3.2,5.1,5.4s1.8,4.7,1.8,7.2c0,2.7-0.7,5.4-2.2,7.7s-3.5,4.3-6,5.6c-0.4,0.2-0.8,0.4-1.2,0.6
		l-0.1,0.1l-0.1-0.2L62.5,28.3z"/>
		<path class="brands01" d="M82.2,24.6c0,1.3,0.4,2.6,1.2,3.7c0.2,0.3,0.5,0.6,0.7,0.8l0.3,0.3h-5l0.4-0.3
		c0.3-0.2,0.6-0.5,0.8-0.8c0.8-1.1,1.3-2.4,1.3-3.8v-0.1h0.3L82.2,24.6z M107.2,0.9c-0.3,0.2-0.5,0.5-0.7,0.8
		c-0.7,1-1.1,2.2-1.2,3.4v0.1H105V5.1c-0.1-1.2-0.5-2.4-1.1-3.4c-0.2-0.3-0.4-0.6-0.7-0.8l-0.3-0.3h4.7L107.2,0.9z M105.3,23.5v6.4
		L81.9,3.4l-0.2-0.2c-0.7-0.8-1.6-1.6-2.5-2.3l-0.4-0.3h0.5c0.3,0,0.5,0,0.7,0h3.7c0.5,0,1.1,0,1.6,0c0.1,0,0.1,0,0.2,0l0,0l0,0
		c0.2,0.2,0.4,0.5,0.6,0.7c0.4,0.5,0.8,1,1.2,1.5L105.3,23.5z"/>
		<path class="brands01" d="M2.6,25.1c0.1,1.1,0.5,2.3,1.1,3.2c0.2,0.3,0.5,0.5,0.7,0.8l0.3,0.3h-4.8l0.3-0.3
		c0.3-0.2,0.5-0.5,0.8-0.8c0.7-0.9,1.1-2,1.2-3.2V25h0.3L2.6,25.1z M31.9,0.9c-0.2,0.2-0.3,0.5-0.4,0.7c-0.2,0.8-0.3,1.5-0.3,2.3
		v22.2c0,0.8,0.1,1.6,0.3,2.4c0.1,0.2,0.2,0.4,0.4,0.6l0.2,0.2h-5.9l0.2-0.2c0.2-0.2,0.3-0.4,0.4-0.7c0.2-0.8,0.3-1.6,0.3-2.4V3.8
		c0-0.8-0.1-1.6-0.3-2.3c-0.1-0.2-0.2-0.5-0.4-0.6l-0.2-0.3h6L31.9,0.9z M2.7,3.6c-0.5-1-1.2-1.9-2.1-2.7L0.3,0.6
		c2.5-0.6,5-1.4,6.9,2.1l11.2,21L16.1,29L2.9,3.9L2.7,3.6z"/>
		<path class="brands01" d="M119.8,24.1c-0.2,0.5-0.2,1.1-0.2,1.7c-0.1,1.2,0.5,2.4,1.5,3.2c0,0,0.1,0,0.1,0.1l0.4,0.3
		h-5.5l0.3-0.3c0.6-0.5,1.1-1.1,1.5-1.8c0.6-1,1.2-2.1,1.7-3.2L119.8,24.1l0.2,0L119.8,24.1z"/>
		<path class="brands01" d="M133.1,14.9l-4.9-9.7l2.2-4.9l11.9,23.5c0.8,1.7,1.7,3.3,2.9,4.8l0.6,0.6l0.2,0.2h-7l0.1-0.2
		c0.1-0.3,0.2-0.6,0.2-0.9c-0.1-1.1-0.5-2.1-1-3L133.1,14.9L133.1,14.9z"/>
	</g>
</svg>
