<svg xmlns="http://www.w3.org/2000/svg" xmlns:xlink="http://www.w3.org/1999/xlink" x="0px"
	 y="0px" viewBox="0 0 197.7 30" style="enable-background:new 0 0 197.7 30;" xml:space="preserve">
<style type="text/css">
	.brands06{fill:currentcolor;}
</style>
<g>
	<path class="brands06" d="M135.4,0v29.7h17.2v-2.8h-14V0H135.4z"/>
	<path class="brands06" d="M25.4,30h0.5V0H23v20c0,1.3,0.2,3.4,0.2,3.4s-1.2-1.7-2.1-2.8L3.7,0H0l2.9,3.4v26.3h3v-20
		c0-1.3-0.3-3.4-0.3-3.4S6.8,8,7.6,9L25.4,30z"/>
	<path class="brands06" d="M96.2,29.7h3.2v-9.4l11-20.3h-3.3l-8,14.8c-0.5,1-0.9,2-1.3,3c-0.3-1-0.8-2-1.3-3L88.5,0H85
		l11.2,20.4V29.7z"/>
	<path class="brands06" d="M66.1,18.9L70.7,30h-3.2L63,18.9h-0.1l-5-12.4c-0.3,1.1-0.7,2.3-1.1,3.4L48.7,30h-3.4L56.5,3
		l-1.2-3h3L66.1,18.9z"/>
	<path class="brands06" d="M193.1,18.9l4.6,11.1h-3.2L190,18.9h-0.1l-5-12.4c-0.3,1.1-0.7,2.3-1.1,3.4L175.7,30h-3.4
		l11.3-27l-1.2-3h3L193.1,18.9z"/>
</g>
</svg>
