<svg xmlns="http://www.w3.org/2000/svg" xmlns:xlink="http://www.w3.org/1999/xlink" x="0px"
	 y="0px" viewBox="0 0 118 30" style="enable-background:new 0 0 118 30;" xml:space="preserve">
<style type="text/css">
	.brands03{fill:currentcolor;}
</style>
<g>
	<path class="brands03" d="M15.7,18.7V30l4.3-4.3v-7.1c-0.1-5.5-4.6-9.9-10.1-9.9c-5.5,0.2-9.8,4.6-9.9,10V30h4.3V18.7
		c0-3.1,2.6-5.7,5.7-5.7S15.7,15.5,15.7,18.7L15.7,18.7"/>
	<path class="brands03" d="M32.2,25.3c-3.5,0-6.4-2.9-6.4-6.4s2.9-6.4,6.4-6.4c2.7,0,5.1,1.7,6,4.3h-12l2.1,2.1l2.1,2.1
		h12.2c1.2-5.8-2.5-11.4-8.3-12.6S22.9,11,21.7,16.8c-1.2,5.8,2.5,11.4,8.3,12.6c0.7,0.1,1.4,0.2,2.1,0.2h6.7l-4.3-4.3H32.2z"/>
	<path class="brands03" d="M77.4,8.3c-5.9,0-10.6,4.8-10.6,10.6c0,5.9,4.8,10.6,10.6,10.6c5.9,0,10.6-4.7,10.6-10.6V0
		l-4.3,4.3c0,4.9,0,9.8,0,14.7c0,3.5-2.9,6.4-6.4,6.4s-6.4-2.9-6.4-6.4s2.9-6.4,6.4-6.4h6.4l-4.3-4.3H77.4z"/>
	<path class="brands03" d="M94.6,4.3L90.3,0v30h4.3L94.6,4.3z"/>
	<path class="brands03" d="M54.8,25.3c-3.5,0-6.4-2.9-6.4-6.4s2.9-6.4,6.4-6.4c2.7,0,5.1,1.7,6,4.3h-12l2.1,2.1L53,21
		h12.2c1.2-5.8-2.5-11.4-8.3-12.6s-11.4,2.5-12.6,8.3c-1.2,5.8,2.5,11.4,8.3,12.6c0.7,0.1,1.4,0.2,2.1,0.2h6.7l-4.3-4.3L54.8,25.3
		L54.8,25.3z"/>
	<path class="brands03" d="M107.4,25.3c-3.5,0-6.4-2.9-6.4-6.4s2.9-6.4,6.4-6.4c2.7,0,5.1,1.7,6,4.3h-12l2.1,2.1l2.1,2.1
		h12.2c1.2-5.8-2.5-11.4-8.3-12.6S98.1,11,97,16.8c-1.2,5.8,2.5,11.4,8.3,12.6c0.7,0.1,1.4,0.2,2.1,0.2h6.7l-4.3-4.3H107.4z"/>
</g>
</svg>
