<svg xmlns="http://www.w3.org/2000/svg"
	xmlns:xlink="http://www.w3.org/1999/xlink" x="0px" y="0px" viewBox="0 0 109.2 30" style="enable-background:new 0 0 109.2 30;" xml:space="preserve">
	<style type="text/css">
	.brands08{fill:currentcolor;}
	</style>
	<g>
		<path class="brands08" d="M76.4,21c0.3,0,0.6-0.1,0.8-0.1c0.6-0.1,1.1-0.6,1.2-1.2c0.1-0.4,0.1-0.8,0.1-1.3v-1.5v-3.6
		c0-0.5,0-0.9,0-1.4s0-1-0.1-1.5c0-0.6-0.3-1.3-0.8-1.6c-0.4-0.2-0.8-0.3-1.2-0.3V8.4C77,8.3,77.6,8.2,78.2,8
		c0.6-0.2,1.1-0.4,1.6-0.6c0.1,0.4,0.1,0.8,0.2,1.1c0,0.5,0.1,1.1,0.1,1.6l0.1,1.2l0.6-1c0.1-0.2,0.2-0.3,0.3-0.5
		c-0.3,0.5-0.4,1-0.5,1.5c-0.1,0.7-0.2,1.4-0.2,2.2v2.4c0,0.8,0,1.6,0,2.5c0,0.4,0,0.8,0.1,1.2c0.1,0.3,0.2,0.6,0.4,0.8
		c0.2,0.2,0.5,0.4,0.8,0.4c0.2,0.1,0.5,0.1,0.7,0.2l0,0c-0.4,0-0.9,0-1.3,0c-0.5,0-1.1,0-1.6,0s-1.1,0-1.7,0
		C77.2,21,76.8,21,76.4,21L76.4,21z M85.5,21c0.3,0,0.6-0.1,0.8-0.1c0.3-0.1,0.6-0.2,0.8-0.4c0.2-0.2,0.4-0.5,0.4-0.8
		c0.1-0.4,0.1-0.8,0.1-1.3v-1.5v-3.7c0-0.5,0-1.1-0.1-1.6c0-0.6-0.2-1.1-0.3-1.7c-0.2-0.5-0.5-1-0.9-1.4c-0.5-0.4-1.1-0.6-1.7-0.6
		c-0.7,0-1.4,0.1-2.1,0.4c-0.1,0.1-0.2,0.1-0.3,0.2c0.1-0.1,0.3-0.2,0.4-0.3c0.8-0.5,1.6-0.7,2.5-0.7c1.2-0.1,2.4,0.3,3.3,1.1
		c0.8,1.1,1.1,2.3,1,3.6v6.2c0,0.4,0,0.9,0.1,1.3c0.1,0.3,0.2,0.6,0.4,0.8c0.2,0.2,0.5,0.3,0.8,0.4c0.2,0,0.5,0.1,0.8,0.1l0,0
		c-0.4,0-0.8,0-1.3,0s-1.1,0-1.6,0c-0.6,0-1.2,0-1.8,0C86.3,21,85.9,21,85.5,21L85.5,21z"/>
		<path class="brands08" d="M31.8,21.4c-0.9,0-1.8-0.2-2.6-0.5c-0.8-0.3-1.5-0.9-2.2-1.5c-0.6-0.7-1.1-1.4-1.5-2.3
		s-0.6-1.9-0.6-2.9c0-0.9,0.2-1.8,0.6-2.7c0.4-0.8,0.9-1.5,1.5-2.2c0.6-0.6,1.4-1.1,2.2-1.4c0.8-0.3,1.7-0.5,2.5-0.5
		c0.9,0,1.7,0.2,2.5,0.5c0.8,0.4,1.6,0.8,2.2,1.5c0.7,0.6,1.2,1.4,1.5,2.2c0.4,0.9,0.6,1.8,0.6,2.8s-0.2,1.9-0.6,2.8
		c-0.4,0.8-0.9,1.6-1.5,2.2s-1.4,1.1-2.2,1.4C33.6,21.2,32.7,21.4,31.8,21.4 M31.9,7.5c-0.8,0-1.6,0.2-2.2,0.6
		c-0.6,0.4-1.1,1-1.4,1.6c-0.4,0.7-0.6,1.4-0.7,2.1c-0.1,0.8-0.2,1.5-0.2,2.3s0.1,1.5,0.2,2.3c0.1,0.8,0.3,1.6,0.7,2.3
		c0.3,0.7,0.8,1.3,1.4,1.8s1.5,0.8,2.3,0.8c0.8,0,1.6-0.2,2.3-0.6c0.6-0.4,1.1-1,1.4-1.6c0.3-0.7,0.6-1.4,0.7-2.2
		c0.1-0.8,0.2-1.6,0.2-2.4c0-0.8-0.1-1.5-0.2-2.3c-0.1-0.8-0.3-1.6-0.7-2.3c-0.3-0.7-0.8-1.3-1.4-1.8C33.5,7.7,32.7,7.5,31.9,7.5"/>
		<path class="brands08" d="M107.8,20.6c-0.4-0.3-0.8-0.6-1.1-1.1c-0.3-0.5-0.5-0.9-0.7-1.5c-0.3-0.4-6.8-18-6.8-18h-0.5
		c-0.2,0.6-0.5,1.4-0.8,2.4l0,0l-4.1,9.8l0,0c-0.1,0.2-1.6,3.8-1.8,4.6c-0.1,0.2-0.7,2.3,0.4,3.6c0.8,0.8,1.9,1.2,3,1.1
		c0.3,0,0.6,0,0.9-0.1l0,0h0.2c0.6-0.1,1.2-0.2,1.8-0.4L98,20.4c-0.5,0.4-1.1,0.6-1.8,0.7c-1.8,0.2-3-0.1-3.7-0.9
		c-1-1.2-0.4-3.1-0.3-3.3c0.2-0.7,1.8-4.5,1.8-4.6l0,0l0.1-0.1c3.9-0.2,7.5,2.1,9.1,5.6c0.2,0.5,0.3,1.1,0.5,1.7
		c0,0.4-0.1,0.7-0.4,1c-0.2,0.2-0.5,0.4-0.8,0.4c-0.3,0.1-0.5,0.1-0.8,0.1c-0.1,0-0.3,0-0.4,0l0,0c0.6,0,1.3,0,1.9-0.1
		c0.8,0,1.5,0,2.3,0c0.7,0,1.3,0,2,0c0.6,0,1.1,0,1.7,0.1l0,0C108.7,21.1,108.2,20.9,107.8,20.6 M94.2,11.9l3.8-9
		c0,0,3,8.4,4.6,13.3C100.8,13.4,97.6,11.8,94.2,11.9"/>
		<path class="brands08" d="M61.1,4.1c0.4,0,0.8,0.1,1.2,0.2l-0.2,0.4c-0.4-0.2-0.7-0.4-1.2-0.5c-0.1,0,0-0.2,0-0.2
		C61,4.1,61,4.1,61.1,4.1"/>
		<path class="brands08" d="M25.2,20.7c-0.5-0.3-0.9-0.6-1.2-1.1c-0.3-0.5-0.5-1-0.7-1.5c-0.1-0.5-0.3-1.1-0.5-1.7L18,0.6
		h-0.5l-5.4,16.2l-6-16.2H5.8L5.1,2.9C4.6,4.4,1.2,14.8,0.7,16.2c-0.8,2.2-0.9,3.7-0.2,4.5c0.6,0.6,1.5,0.9,2.3,0.8
		c0.4,0,0.7-0.1,1.1-0.1l0,0h0.2c0.6,0,1.1-0.2,1.7-0.3l-0.3-0.7c-0.5,0.3-1,0.6-1.6,0.7c-1.6,0.2-2.7,0-3.2-0.6
		c-0.6-0.7-0.5-2.1,0.2-4.2c0.4-1.2,2.9-8.6,4-11.9L11,21.1l5.6-16.8l3.1,10.8c0.1,0.5,0.3,1.1,0.5,1.7s0.3,1.3,0.3,2
		c0.1,0.9-0.4,1.9-1.4,2.1c-0.5,0.1-1,0.2-1.5,0.3l0,0c0.6,0,1.2-0.1,1.8-0.1c0.7,0,1.5,0,2.3,0c0.9,0,1.8,0,2.6,0
		c0.7,0,1.4,0,2.2,0.1v-0.1C26.1,21.1,25.6,20.9,25.2,20.7"/>
		<path class="brands08" d="M61.9,22.6c-0.3-0.6-0.7-1.2-1.3-1.5c-0.4-0.2-0.9-0.4-1.3-0.5c-0.6-0.1-1.2-0.2-1.7-0.2
		c-0.6,0-1.2-0.1-1.8-0.1s-1.1,0-1.6-0.1c-0.2,0-0.4,0-0.6,0c-0.2,0-0.5-0.1-0.7-0.1c-0.2-0.1-0.5-0.2-0.6-0.4
		c-0.2-0.2-0.4-0.5-0.3-0.8c0-0.6,0.4-1.1,0.9-1.3c0.6-0.2,1.1-0.4,1.7-0.4c0.3,0,0.6-0.1,0.9-0.1c-0.5,0-1.1-0.2-1.5-0.5
		s-0.8-0.7-1-1.2c-0.3-0.5-0.4-1-0.5-1.6c-0.1-0.5-0.1-1.1-0.1-1.6s0.1-1.1,0.2-1.6c0.1-0.5,0.3-1,0.5-1.5c0.2-0.4,0.6-0.8,1-1.1
		c0.5-0.3,1-0.5,1.5-0.5l0,0c-0.1,0.6-0.2,1.3-0.1,1.9c0.3,1.7,1.6,3,3.3,3.3c0,0.5-0.1,0.9-0.2,1.4c-0.1,0.5-0.3,1-0.6,1.4
		s-0.6,0.8-1,1.1c-0.3,0.2-0.5,0.3-0.8,0.3h0.2c0.5,0,1-0.1,1.5-0.2c0.8-0.3,1.5-0.9,2-1.6c0.5-0.8,0.8-1.6,0.8-2.6
		c0-1.1-0.3-2.3-1-3.2l-0.5-0.5c-0.9-0.9-2.2-1.4-3.4-1.4c0.1-0.8,0.5-1.5,1-2.1c1.2-0.9,2.8-1.3,4.3-1V4.1
		c-1.6-0.4-3.2,0.1-4.4,1.2c-0.6,0.6-0.9,1.4-1.1,2.3c-0.6,0-1.2,0.1-1.8,0.3c-0.6,0.2-1.2,0.5-1.7,0.9s-0.9,0.9-1.2,1.5
		s-0.5,1.3-0.5,2c0,1,0.3,1.9,0.8,2.7c0.6,0.7,1.3,1.3,2.1,1.7l1,0.4l-1,0.2c-0.6,0.1-1.2,0.4-1.7,0.9c-0.5,0.4-0.8,1.1-0.8,1.8
		c0,0.8,0.4,2.2,3.1,2.4c0.9,0.1,1.7,0.2,2.6,0.2c0.8,0,1.5,0.1,2.3,0.2c0.7,0.2,1.2,0.6,1.6,1.2c0.4,0.6,0.6,1.3,0.6,2
		c0,0.6-0.1,1.2-0.5,1.8c-0.3,0.5-0.7,0.9-1.1,1.2c-0.5,0.3-1,0.6-1.5,0.7s-1.1,0.2-1.6,0.2s-1.1-0.1-1.6-0.1
		c-0.6-0.1-1.1-0.3-1.6-0.6c-0.5-0.3-0.9-0.6-1.3-1.1c-0.4-0.5-0.6-1.2-0.5-1.8c0-0.6,0.1-1.2,0.4-1.7c0.2-0.3,0.5-0.6,0.8-0.8
		c-0.2-0.1-0.4-0.1-0.6-0.1c-0.5,0-1,0.3-1.3,0.7c-0.4,0.5-0.5,1.1-0.5,1.7c0,0.7,0.2,1.3,0.6,1.9c0.4,0.5,0.9,0.9,1.5,1.2
		c0.6,0.3,1.3,0.5,2,0.7c0.6,0.1,1.3,0.2,1.9,0.2c0.8,0,1.5-0.1,2.3-0.3c0.7-0.2,1.4-0.5,2-1c0.6-0.4,1.1-1,1.4-1.6
		c0.4-0.7,0.6-1.5,0.5-2.3C62.4,24,62.3,23.3,61.9,22.6 M57.3,8.1c0.4,0.3,0.8,0.8,1,1.2c0.2,0.5,0.4,1,0.5,1.6s0.1,1.1,0.1,1.7l0,0
		c-1.6-0.3-2.9-1.6-3.1-3.2c-0.1-0.6-0.1-1.2,0.1-1.9C56.4,7.6,56.9,7.8,57.3,8.1"/>
		<path class="brands08" d="M74.9,20.1c-0.3,0.2-0.6,0.3-0.9,0.3s-0.7-0.1-0.9-0.4c-0.2-0.2-0.3-0.5-0.4-0.8
		s-0.1-0.6-0.1-0.9s0-0.5,0-0.8v-6.2c0-0.7-0.1-1.4-0.4-2.1c-0.2-0.5-0.5-0.9-1-1.1c-0.5-0.3-1.1-0.5-1.7-0.6l0,0
		c-0.6-0.1-1.2-0.2-1.8-0.1c-1.1,0-2.1,0.4-2.9,1.2c-0.5,0.6-0.7,1.4-0.6,2.2l0,0v0.1c0,0,0,0,0,0.1l0,0l0,0c0,0.4,0.1,0.7,0.2,1.1
		l0.4-0.2c-0.2-0.3-0.4-0.7-0.4-1c-0.1-0.8,0.1-1.5,0.6-2.1c0.7-0.7,1.7-1.1,2.7-1.1c0.8-0.1,1.6,0,2.3,0.3c0.4,0.2,0.6,0.5,0.6,0.9
		c0,0.5,0.1,2.4,0.1,3c0,0.4-0.2,0.6-0.7,1c-0.4,0.3-2.5,1.2-3.3,1.7c-0.6,0.4-1.3,0.8-1.9,1.2c-0.5,0.4-1,0.8-1.4,1.4
		c-0.3,0.5-0.5,1.1-0.5,1.7c0,0.7,0.3,1.4,0.8,1.8c0.5,0.4,1.2,0.7,1.9,0.7c0.9,0,1.7-0.2,2.5-0.6l0.1-0.1c-0.3,0.1-0.7,0.2-1,0.2
		c-0.7,0-1.4-0.4-1.7-1C65.1,19.3,65,18.7,65,18c0-0.7,0.3-1.3,0.7-1.9c0.4-0.5,0.9-1,1.4-1.3c0.6-0.4,1.1-0.7,1.8-1
		c0.6-0.3,1.1-0.5,1.5-0.8l0.5-0.3V19c0,0.6,0.3,1.2,0.8,1.6c0.4,0.3,1,0.5,1.5,0.5s1-0.2,1.4-0.5c0.3-0.3,0.6-0.6,0.8-0.9
		C75.1,19.9,75,20,74.9,20.1"/>
		<path class="brands08" d="M50,7.7c-0.4-0.1-0.7-0.2-1.1-0.2h-0.1l0,0c-1.2-0.2-2.4,0.1-3.4,0.8
		c-0.7,0.6-1.2,1.5-1.4,2.4c0-0.2,0-0.2,0-0.2c0-0.6-0.1-1.2-0.1-1.7c-0.1-0.5-0.2-0.9-0.4-1.3c-1.1,0.5-2.2,0.8-3.4,1v0.1
		c0.4,0,0.8,0.1,1.2,0.3c0.6,0.3,0.9,1,0.9,1.6c0,0.5,0,1,0,1.5s0,1,0,1.4V17v1.5c0,0.4,0,0.8-0.1,1.3c0,0.3-0.2,0.6-0.4,0.8
		c-0.2,0.2-0.5,0.3-0.8,0.4c-0.2,0-0.5,0.1-0.8,0.1v0.1c0.4,0,0.9,0,1.3,0c0.6,0,1.1,0,1.7,0c0.6,0,1.1,0,1.7,0c0.5,0,0.9,0,1.4,0
		V21c-0.3,0-0.6-0.1-0.8-0.1c-0.3,0-0.6-0.2-0.9-0.4c-0.2-0.2-0.4-0.5-0.5-0.8c-0.1-0.4-0.1-0.9-0.1-1.3c0-0.7-0.1-1.5-0.1-2.2V14
		c0-0.4,0-1.3,0-2.1c0.1-1.3,0.6-2.5,1.5-3.4c0.9-0.7,2-1,3.1-0.8c0.4,0.1,0.8,0.2,1.1,0.5L50,7.7z"/>
	</g>
</svg>
