<svg xmlns="http://www.w3.org/2000/svg" xmlns:xlink="http://www.w3.org/1999/xlink" x="0px"
	 y="0px" viewBox="0 0 173.4 30" style="enable-background:new 0 0 173.4 30;" xml:space="preserve">
<style type="text/css">
	.brands04{fill:currentcolor;}
</style>
<g>
	<path class="brands04" d="M29.6,28.2l-4.5-9l0,0c0,0,0,0,0-0.1l0,0c0,0,0,0,0-0.1s0,0,0-0.1l0,0c0,0,0,0,0-0.1l0,0
		c0,0,0,0-0.1-0.1l0,0c0,0,0,0-0.1,0s0,0,0,0h-0.1c0,0,0,0-0.1,0l0,0c0,0,0,0-0.1,0l0,0h-0.1h-0.1h-0.1h-0.1h-0.1H24l0,0
		c-6.1,0-12.1,1.6-17.4,4.6c-0.6,0.4-1.2,0.7-1.7,1l10-20.1l4.3,8.7c0.3,0.6,1.1,0.9,1.7,0.5c0.6-0.3,0.8-1,0.6-1.7L16,0.8
		c-0.3-0.6-1.1-0.9-1.7-0.6c-0.2,0.1-0.4,0.3-0.6,0.6L0.1,28.2c-0.3,0.6-0.1,1.4,0.6,1.7c0.5,0.2,1.1,0.1,1.5-0.3
		c5.7-5.4,13.2-8.4,21.1-8.6l4.1,8.3c0.3,0.6,1,0.9,1.7,0.6C29.7,29.6,29.9,28.9,29.6,28.2L29.6,28.2"/>
	<path class="brands04" d="M172.1,27.4h-20.5c-3.1,0-5.5-2.5-5.5-5.5c0,0,0,0,0-0.1v-5.5h19.5c0.7,0,1.3-0.6,1.3-1.3
		s-0.6-1.2-1.3-1.3h-20.8c-0.7,0-1.3,0.6-1.3,1.3v6.8c0,4.5,3.6,8.1,8.1,8.2h20.5c0.7,0,1.3-0.6,1.3-1.3
		C173.3,28,172.8,27.4,172.1,27.4"/>
	<path class="brands04" d="M144.7,2.6h27.4c0.7,0,1.3-0.6,1.3-1.3s-0.6-1.2-1.3-1.3h-27.4c-0.7,0-1.3,0.6-1.3,1.3
		C143.5,2,144.1,2.6,144.7,2.6"/>
	<path class="brands04" d="M73.7,0.4c-0.4-0.4-1.2-0.4-1.6,0c0,0,0,0-0.1,0.1L50.3,25.4v-24c0-0.7-0.5-1.2-1.2-1.3
		c-0.7,0-1.3,0.5-1.4,1.2c0,0,0,0,0,0.1v27.4c0,0.7,0.5,1.2,1.2,1.3l0,0c0.1,0,0.1,0,0.2,0c0.3-0.1,0.5-0.2,0.7-0.4
		c2.5-2.8,24.1-27.4,24.1-27.4C74.3,1.6,74.3,0.8,73.7,0.4L73.7,0.4"/>
	<path class="brands04" d="M67.3,14.6c-0.5-0.2-1,0-1.3,0.4l0,0c-0.5,0.5-0.4,1.3,0.1,1.8c0.1,0.1,0.3,0.2,0.4,0.2
		c5,1.7,8.4,6.4,8.5,11.7c0,0.7,0.5,1.2,1.2,1.3c0.7,0.1,1.3-0.5,1.3-1.2v-0.1C77.4,22.3,73.3,16.6,67.3,14.6"/>
	<path class="brands04" d="M116.2,10.5c0.3,0,0.7-0.1,0.9-0.4l7.9-7.9c0.5-0.5,0.4-1.3-0.1-1.8c-0.5-0.4-1.2-0.4-1.7,0
		l-7.9,7.9c-0.5,0.5-0.5,1.3,0,1.8C115.6,10.3,115.9,10.5,116.2,10.5"/>
	<path class="brands04" d="M125,27.8L97.6,0.4c-0.5-0.5-1.3-0.5-1.8,0s-0.5,1.3,0,1.8l0,0l15.9,15.9
		c-0.4,0-0.9-0.1-1.3-0.1c-3.1,0-6,1.2-8.1,3.4l-6.4,6.4c-0.5,0.5-0.5,1.3,0,1.8s1.3,0.5,1.8,0l0,0l6.4-6.4c3.5-3.5,9.2-3.5,12.7,0
		l0,0l6.4,6.4c0.5,0.5,1.3,0.5,1.8,0C125.5,29.1,125.5,28.3,125,27.8L125,27.8"/>
</g>
</svg>
