<svg xmlns="http://www.w3.org/2000/svg"
	xmlns:xlink="http://www.w3.org/1999/xlink" x="0px" y="0px" viewBox="0 0 106 70" style="enable-background:new 0 0 106 70;" xml:space="preserve">
	<style type="text/css">
	.brands09{fill:currentcolor;}
	</style>
	<g>
		<path class="brands09" d="M33.9,25.4l5.9-6l-7,6.9v0.1L33.9,25.4z"/>
		<path class="brands09" d="M27.4,24.7c-0.2-0.2-0.4-0.2-0.7-0.2c0,0-0.2,0.5,0,0.5C27,24.9,27.2,24.8,27.4,24.7"/>
		<path class="brands09" d="M31.9,17.1c0,0-0.2,0.1-0.1,0.2s0.3,0,0.3,0S32.2,17.1,31.9,17.1"/>
		<path class="brands09" d="M17.4,41.9l0.5-0.7l2.4-9.3L17.4,41.9z"/>
		<path class="brands09" d="M24.4,26.7l-0.2-0.4l-0.1,0.3L24.4,26.7z"/>
		<path class="brands09" d="M25.3,25.7h-0.6v0.2l1.1,0.1L25.3,25.7z"/>
		<path class="brands09" d="M25.2,26.5l-0.1-0.4L25,26.8L25.2,26.5z"/>
		<path class="brands09" d="M5,20.7l2.1,0.1L7.5,21l9.2-2l-8.3,2l1.6,0.8l2.4-0.5c0.5,0-3.4,1.3-3,1.3
		c0.8-0.2,8.2-2.1,8.5-2.2c0.1,0,0.1,0,0.2-0.1l-0.9,3.3c-0.2,0-0.4-0.1-0.6,0c-0.1,0-0.9,1.1-1.1,1.1s0.9,0.8,1.1,1.1v0.1
		c-0.4,0-1.6-0.7-1.6-0.6c0,0.2,0.7,0.7,1.4,1.3L10.3,50l0,0L7.6,60.9l3.2-11h-0.2l0.7-0.5l0.4-0.4l1.2-3.1L12.1,49l0.1,1l0.3-1.3
		l1.4-5.4l0.6-1.5l3.8-13.9c0.2,0.1,0.3,0.2,0.4,0.4L18,28.7c0,0-3.3,12.4-3.5,13.1c-0.3,1-1.6,6.7-1.7,7c0.2-0.2,1.4-2.3,1.4-2.3
		s1.5-0.8,1.9-1l4.5-15.8l0,0l-0.3,2.1l0.3-0.8l0.4-1.1c0.4,0.2,0.8,0.5,1.3,0.8V31l-1-0.5l0.9,0.8l-0.1,0.4L20.7,31l1.4,0.9l-2,7.3
		v1.6l2.3-8.7l4.8,3l6.8,4.2l0.8-0.5c0,0-0.6-0.4-1-0.7l1.4,0.4c0.9-0.5,2.3-1.2,3.2-1.8c0.1-0.1-4-2.2-4.6-2.5
		c0.6,0.3,4.8,2.5,4.9,2.4l-14.3-9.4l-0.5-0.4l0.2-0.6l0.6-0.3l-0.3-0.2c0.7-0.4,1.2-0.8,1.5-0.9c0.1,0,0.1-0.1,0.2-0.1
		c0,0,0,0,0,0.1c0.1,0.2,0.6,0.1,0.6,0s0-0.2,0-0.3c0.5-0.1,1-0.2,1.5-0.2l3.9-2.6L28.7,24l11.2-7.6l-14,10.1l3-1.9l-1.3,1.8
		L43.5,16l-1.1-0.6c0,0-0.8-0.1-1.1-0.2l0.3-0.2c-0.1,0,0.1-0.4-0.2-0.5c-0.1,0-4.1,3-4.2,3c-0.1,0,3.3-2.6,3.3-2.6
		c-1.1-0.3-2.7-0.9-3.9-1.3l0,0L35.4,13L35,12.9l-9.5,2.3c0,0,0-0.1-0.1-0.1l10.3-2.7l-1-0.5l-13,3.1l0.1-0.2
		c4.9-1.2,11.5-2.9,11.5-2.9l-1.8,0.2l-8,2.1l-1.7,0.4L21.2,14L21,14.8L0,19.6l1,0.2l20-4.9l0,0L16.6,16c0.2,0,2-0.4,4.3-1l-0.1,0.2
		l-16.5,4l-0.7,0.6l0.9,0.7l0.8-0.2l13.6-3l0,0L5,20.7z M34.2,37.6c0,0-6.6-4.9-7-5.6S34.2,37.6,34.2,37.6 M18.3,20.5L18.3,20.5
		L18.3,20.5L18.3,20.5z M22.3,31.9l0.1-0.4l1.1,1L22.3,31.9z M22.6,31.1v-0.2c0.3,0.2,0.7,0.4,1,0.7L22.6,31.1z M26.6,31.7
		c-0.5,0.1-3.6-2.3-3.6-2.3C23.1,29.2,27.1,31.6,26.6,31.7 M23.2,26.4l0.5-0.2l-0.1,0.5L23.2,26.4z M24.1,24.8l-1.3,1H22l2.2-1.4
		L24.1,24.8z M22.1,25.2c0-0.3,0-0.6,0.1-0.9s0.2-0.2,0.2-0.2s0.2,0.2,0.4-0.5c0.1-0.5,1.2-3.2,1.9-4.9l1.3-0.3l-1.5,5.3
		C23.5,24.2,22.7,24.7,22.1,25.2 M24.2,24.7l0.1-0.4l1.8-1.1L24.2,24.7z M27.5,23.8l6.1-4.2l0.6-0.1C31.7,21.1,27.7,23.8,27.5,23.8
		 M35.5,18.3l-0.4,0.1l0.4-0.3h0.4C35.8,18.2,35.7,18.3,35.5,18.3 M37.7,15l-3.9,1.6l-0.3-0.3L37.7,15z M33.1,17.3
		c-0.5,0.8-5,3.8-8.6,6.2l1.4-5.2l5.2-1.4c0,0.1-0.1,0.1,0,0.2c0.1,0.2,0.6,0.1,0.6,0c0,0,0.1-0.3,0-0.4l1.3-0.4l-0.6,1
		C32.4,17.6,33.2,17.2,33.1,17.3 M26,18l0.1-0.2l6.3-1.4L26,18z M25.5,15.5l4-0.7c-1.1,0.2-2,0.4-2.6,0.5
		C26.4,15.4,25.9,15.5,25.5,15.5L25.5,15.5 M26,17.8V18l-1.2,0.3L25,18L26,17.8z M21.9,16.1l3-0.8l-0.1,0.1L21.9,16.1L21.9,16.1z
		 M23.6,15.8c-0.6,0.2-1.2,0.3-1.8,0.5v-0.2L23.6,15.8z M21.4,16.2l0.4-0.1l0,0L21.4,16.2L21.4,16.2z M21.4,16.2l0.4-0.1l-0.1,0.2
		l-0.4,0.1L21.4,16.2z M21.5,21v0.6l-1.4,3.6l0,0L21.5,21z M20.8,19.7l0.2-0.1v0.3h-0.2V19.7z M20.9,20.2l-1.2,4.5
		c0,0-0.1,0-0.7,1.4l1.7-5.8L20.9,20.2 M19.3,24.1l0.3-1.3l0,0L19.3,24.1z M19.7,22.9L19.7,22.9l0.8-3l0.2-0.1L19.7,22.9z M19,17.4
		L19,17.4l1.4-0.3l0,0L19,17.4z M20.5,16.4l-0.1,0.2c-0.5,0.1-0.9,0.2-1.4,0.3v-0.2L20.5,16.4z M13.2,18.4L13.2,18.4l6-1.6L19.1,17
		C16.9,17.5,14.7,18,13.2,18.4 M19.5,20.1l-0.1,0.4l-0.2,0.1l0.1,0.1l-0.2,0.9c0-0.1-0.1-0.1-0.1-0.1l-0.3-0.2
		c-0.1,0.1-0.2,0.3-0.2,0.4l0.5,0.5l-0.6,2.1l-0.1-0.1l0.3-1.1L17.8,24c-0.1-0.1-0.2-0.1-0.3-0.1l0.8-3.2c0.1,0,0.1,0.1,0.2,0.1
		c0,0,0.3-0.1,0.3-0.4L19.5,20.1"/>
		<path class="brands09" d="M58.9,24.4c0,0,0.4,0.5,0.5,0.3c0.1-0.3,0.1-0.6,0.1-0.9C59.3,23.9,59.1,24.2,58.9,24.4"/>
		<path class="brands09" d="M56.7,14.3l-0.2-0.1L50,20.5C50,21.4,56.7,14.3,56.7,14.3"/>
		<path class="brands09" d="M39.5,43.4c0,0,0.1-0.3-0.2-0.2c0,0-0.2,0.2-0.1,0.2S39.5,43.4,39.5,43.4"/>
		<path class="brands09" d="M38.2,50.6c0,0.1,0,0.3,0.1,0.4c0.1,0.1,0.3,0,0.4,0S38.5,50.5,38.2,50.6"/>
		<path class="brands09" d="M39.1,51.6L39.1,51.6v-0.8l-0.2,0.9L39.1,51.6z"/>
		<path class="brands09" d="M37.9,56c-0.7-0.4-1.1-0.7-1.2-0.7S37.2,55.6,37.9,56"/>
		<path class="brands09" d="M40,53.5L40,53.5L40,53.5L40,53.5"/>
		<path class="brands09" d="M40,53.5C40,53.5,39.9,53.5,40,53.5l-0.3-0.2L40,53.5L40,53.5"/>
		<path class="brands09" d="M25.6,68.9l0.9-1.6l6.9-30.4L25.6,68.9z"/>
		<path class="brands09" d="M8.6,54.4l1.5-4.2L17,19.9L8.6,54.4z"/>
		<path class="brands09" d="M54.7,40.6l-9.2,9l3.5-3.2L54.7,40.6z"/>
		<path class="brands09" d="M51.1,49.7c0,0-0.2,0.2-0.2,0.3s0.4,0,0.4,0S51.5,49.7,51.1,49.7"/>
		<path class="brands09" d="M62.3,38.9c0,0.1,0,0.1,0.1,0.2C62.3,38.9,62.3,38.9,62.3,38.9"/>
		<path class="brands09" d="M65.6,52.6c0-0.1-1.8-2.7-1.8-2.7l0.1,0.6l1.2,2.8l0.4,0.2C65.6,53.2,65.6,52.9,65.6,52.6"/>
		<path class="brands09" d="M24.2,51.4l-0.1,0.2L24,52.1l0.5,0.2C24.4,52,24.3,51.7,24.2,51.4"/>
		<path class="brands09" d="M23.5,54.6l-0.1,0.3l0.5-0.3l-0.1-0.1L23.5,54.6z"/>
		<path class="brands09" d="M25.3,56.5c-0.1,0.4,0.4,0.5,0.4,0.3l-0.1-0.5C25.6,56.2,25.4,56.1,25.3,56.5"/>
		<path class="brands09" d="M23.9,53.6l0.1,0.2l0.1-0.1L24,53.5L23.9,53.6z"/>
		<path class="brands09" d="M29.9,45.6h-0.5l-3.3,12.7L29.9,45.6z"/>
		<path class="brands09" d="M25.3,55.6c0,0,0.1-0.2-0.1-0.2c0.4-0.3,0.7-0.5,1.1-0.7l0.1-0.2l0.2,0.7l2.3-8l-1,2.4
		c0.3-1.1,0.6-2,0.8-2.6c-0.2,0-0.9,0.5-1.1,0.4c0,0.1-1.8,6.4-1.8,6.4l1.4-6.3c-0.7,0.2-1,0.4-1.7,0.7c-0.1,0-0.6,1.5-1,2.3
		c0,0.2,0,0.5-0.1,0.7c0.1,0.7,0.2,1.4,0.1,2.1l0,0l0,0c0,0.1,0,0.2,0,0.3c0,0-0.1,0-0.1,0.2c0,0.1,0,0.2,0.1,0.2c0,0.1,0,0.1,0,0.2
		s0,0.2,0,0.2v0.1c-0.2-0.1-0.4,0.6-0.3,0.6c0.1,0.1,0.2,0.1,0.3,0c0,0.2,0,0.3-0.1,0.5l0,0c0,0.1,0,0.3,0,0.4
		c0.1-0.1,0.3-0.2,0.4-0.4l0,0C25.1,55.7,25.3,55.6,25.3,55.6"/>
		<path class="brands09" d="M6.2,58.8c0,0.1,0.3,0,0.3,0s0.1-0.2-0.1-0.1c0.3-0.2,0.6-0.4,1-0.6c0,0,0.1-0.3,0.3-0.9
		l0.3,1l2-6.9l-2.1,5c0.5-1.7,1.2-4,1.6-4.9c-0.2,0-0.8,0.4-1,0.4L7,57.3l1.2-5.4c-0.6,0.2-0.8,0.3-1.5,0.6c-0.1,0-0.5,1.3-0.8,2
		c0,0.3,0,0.6-0.1,0.8v3.1c0,0.2,0,0.3,0,0.5h0.1c0,0.1,0,0.2,0,0.3C6,58.9,6.1,58.8,6.2,58.8C6.2,58.7,6.2,58.8,6.2,58.8 M5.7,58.3
		c0-0.5,0-1,0.1-1.5C5.9,57.4,5.9,57.9,5.7,58.3"/>
		<path class="brands09" d="M70.1,31.4h-0.4l-2.7,11L70.1,31.4z"/>
		<path class="brands09" d="M65.1,39.8c0,0.2,0,0.3,0,0.5h0.1c0,0.1,0,0.2,0,0.3c0.1-0.1,0.2-0.2,0.3-0.3l0,0
		c0,0.1,0.3,0,0.3,0s0.1-0.2-0.1-0.1c0.3-0.2,0.6-0.5,1-0.6c0,0,0.1-0.3,0.2-0.9l0.4,1.1l1.9-7l-2,5c0.5-1.7,1.2-4,1.5-5
		c-0.2,0-0.8,0.4-1,0.4l-1.5,5.5l1.2-5.5c-0.6,0.2-0.8,0.4-1.5,0.6c-0.1,0-0.5,1.3-0.8,2c0,0.3,0,0.6-0.1,0.9L65.1,39.8z M65.3,38.4
		c0,0.5,0,1-0.1,1.5C65.1,39.4,65.2,38.9,65.3,38.4"/>
		<path class="brands09" d="M68.4,8.5c-0.1-0.3-0.2,0-0.2,0L68,8.7l0.2,0.1C68.2,8.8,68.5,8.7,68.4,8.5"/>
		<path class="brands09" d="M82.6,14c2.5-2.1,6.7-6.1,6.7-6.1c0.1-0.1-0.1-0.3-0.1-0.3l-1.3,0.5L75.6,19.5
		C75.6,19.5,78.9,17,82.6,14"/>
		<path class="brands09" d="M95,5.3l-0.1-0.5L92.1,6L76.9,19.3L95,5.3z"/>
		<path class="brands09" d="M71.2,22.3c0,0.3,0.2,0.6,0.4,0.8c0,0,0.6-0.3,0.4-0.4C71.8,22.6,71.5,22.5,71.2,22.3"/>
		<path class="brands09" d="M72.5,22c0.9-0.6,1.7-1.2,2.5-1.9L72.5,22z"/>
		<path class="brands09" d="M73.4,22l-1.1,0.2l-0.2,0.1h1.6L73.4,22z"/>
		<path class="brands09" d="M57.9,12.4L47.2,22.5c0,0.1-7.5,7.2-7.5,7.3l17.1-15.9L57.9,12.4z"/>
		<path class="brands09" d="M55.3,65.3l3.4-0.9l-0.1-0.6c0,0-11.9-7.2-17.2-10.4c-0.4,0.1-0.7,0.2-1.1,0.2l0.6,0.1
		c0,0,2.6,1.7,2.6,1.6c-0.7-0.4-3.1-1.6-3.2-1.7c-0.1,0-0.1,0-0.2,0l2.8,1.8l-0.2-0.1l-6-3.3l0.6-0.4c0.1,0.1,0.1,0.1,0.2,0.2
		c0.1-0.1,0.2-0.2,0.4-0.3c-0.1,0-0.2-0.1-0.3-0.1l0.4-0.2c0,0-0.3,0.1-0.3-0.4s0.6-0.2,0.6-0.2c0.6,0,2.9-1.7,5.4-3.7l-0.9,0.9
		l-3.5,2.8l1.7-0.5l1.4-1.2l2.1-1l-3.7,3.4l12.3-9.7l-0.3-1.1L52.1,41l1.8-1.8l-0.4-0.3L49,42.3c0.1-0.1,0.1-0.2,0.2-0.2
		c0.1-0.1,0.2-0.2,0.3-0.3l0,0c1.2-1.1,2.2-2,2.2-2v-0.6l1-0.6c0.6-0.3,0-0.6,0-0.6l0.1-0.3l0.2-0.4l0.2-1.2l0.1-0.4l-10.4,2.2
		l-2-0.9c-0.3-0.1-0.7-0.3-1-0.6l0,0l-4.6-2.7l0.5-0.5l0,0l-0.5,0.5L27.4,29l14.3,9.3h0.2l-5.7,1.2h-0.1l-12.2,2.3
		c-0.9,0.1-1.8,0.4-2.5,0.9c-0.1,0,1-0.2,2.6-0.4l-0.3,0.3c0,0-1.1,4.2-1.7,6.8c0.5-2.4,1.2-6,1.2-6l-2,3.3l-1.3,4.4V51
		c0-0.1,0-0.2,0.1-0.2l0,0l1.1-5c-0.4,0.2-0.6,0.5-0.8,0.9c-0.1,0.4-1.1,4.6-1.6,6.7c-0.1,0.4-0.2,0.7-0.3,1.1l0,0l0,0
		c-0.3,1.5-0.5,3-0.9,4.8L16,51.5h-0.3c-0.7,0.1-1.3,0.1-2,0.1l0.3,1.2l-0.5,0.9l0,0c0.1,0.2,0.2,0.4,0.3,0.6v0.1l0.4,0.1
		c0,0,0-0.5,0-0.9l1.8,8.1c0.2,0,0.3,0,0.5,0c0,0,0-0.3,0.1-0.3s0.1,0.3,0.2,0.3c0.6,0.6,1.4,1.1,2.2,1.4l2.1-6
		c0.1,0-1.9,6.6-1.8,6.6c0.7-2,6.1-20.3,6-20.4c0,0-1.3,0.5-1.2,0.2c0.1-0.3-2.2,7.4-2.1,7.1h-0.1c0.3-1.3,1-4.2,1-4.2l1.3-4.1
		c3.3-0.6,8.9-1.6,11.7-2.1l-0.1,0.3l-9.4,1.9c0,0.1-0.7,0.3-0.3,0.4c0.1,0,9.5-2,9.6-1.9c0.1,0-8.3,1.9-8.3,1.9
		c1.1,0.3,2.9,0.6,2.8,0.6c0.9,0.6,2.2-0.3,3.1,0.2l-1.7,6.2l-0.1-0.9l-4.3,17.9l1.2-1.1l0.9-1.7L29,65.3l0.4-0.4l0.9-4l1.6-7.1v0.7
		C31.2,57.6,30,64,30,64s1.8-1.6,2-1.9c0.2-0.2,0.5-0.4,0.8-0.6l2.5-7.6l0,0l-2.1,7.9l0.3-0.5l1.8-7.4l1,0.7c0,0,0.2,0.3,0.4,0.1
		c0.1-0.1,8,4.3,11.6,6.5h0.3L48,61.7l0.3-0.4c-0.3,0-7.4-3.8-10.3-5.4c2.5,1.4,8.2,4.8,8.2,4.8s-9.8-5.5-9.9-5.5s-1.1-0.1-0.9,0
		c0.1,0.1,10.8,7.1,15.1,9.8c-4.4-2.5-14.7-8.3-14.7-8.2s16.4,9.5,16.4,9.5l0.3-0.2L51.8,66c-0.6-0.6-2-2.1-2-2.1s-1.5-1.1-2.5-1.8
		c1.3,0.7,3.2,1.8,3.2,1.8l3.9,1.4l-5.6-4.2l0.3,0.2L55.3,65.3z M57.9,63.9l-1.1-0.2l-6.4-4.4L57.9,63.9z M16.4,61.1l-0.9-5.8
		c-0.1-0.3-0.1-0.5-0.1-0.5l0.1,0.5c0.3,1.5,1,5.6,1,5.6L16.4,61.1z M18.8,60.5l0.3-1.8l1.4-3.5L18.8,60.5z M21,53.6
		c0.2-0.6,0.4-1.2,0.7-1.8l0,0C21.7,51.7,21,54,21,53.6 M29.5,61.2c0,0.1,3.4-15.6,3.8-17.7c0,0,0.1,0,0.1,0.1l0.4-0.1
		C33.2,46,29.5,61.1,29.5,61.2 M32.3,52.5L32.3,52.5l2-9.1l0.7-0.2l-2.4,8.9C32.6,52.1,32.2,52.3,32.3,52.5 M33.5,50.2L33,51.8
		L32.7,52L33.5,50.2z M32.7,61.4l-0.1,0.2v-0.1l1.8-5.1L32.7,61.4z M33.7,49.2l1.5-6l0.3-0.1L33.7,49.2z M38,50.3
		c0,0,0.3-0.9,0.7-0.6S38,50.3,38,50.3 M48,43.2l0.9-0.7l0,0L48,43.2z M44.4,45.8l6.4-5.9l0.9-0.5L44.4,45.8z M52.6,37.5v0.2
		l-2.3,0.4L52.6,37.5z M46.4,41.2L41.9,45C42,44.8,45.3,42.1,46.4,41.2L46.4,41.2 M46,41.1c-1.7,1.4-5.6,4.6-8.9,7.5l0.7-2.1
		c0,0,1-3.3,0.4-3.3c-0.4,0-0.4-0.3-0.4-0.6l0.3-0.1v0.1c0.1,0.1,0.7,0,0.7,0s0.1-0.2,0-0.2c2.3-0.5,4.7-1.1,6.6-1.6L46,41.1
		 M45.1,40.6L38,42.3C38.6,41.7,45.1,40.6,45.1,40.6 M41.5,39.1l-5.1,1.2c0-0.1,0-0.1,0-0.2C38.4,39.7,40.3,39.4,41.5,39.1
		 M36.5,48.7L36,49.5l1.6-6.1C37.8,44.3,36.5,48.7,36.5,48.7 M38,55l8.5,4.5l0.3,0.4L38,55z M48.7,61.3l-1.5-1.1L48.7,61.3
		L48.7,61.3z"/>
		<path class="brands09" d="M86.7,29.8c0-0.1-0.1-0.2-0.1-0.3l12,6.6l-1.1-1.4l8.5,3.4L83.7,27.2l0,0L83.6,27l-0.3,0.1
		l-7.8-3.8l-0.4-0.1l11.2,6.1l-0.1,0.2l-11-5.8l-1.6,0.2l2.9,1.9l-0.1-0.1l0.2,0.1l2.8,1.8c-4.1-2.3-7.4-4.1-7.5-4.2
		s-0.7-0.3-1.5-0.5l0.4-0.3c0,0-0.4,0.1-0.4-0.5s0.7-0.2,0.7-0.2c1.3,0,13.7-11.3,13.9-11.4l2.3-2.1c-2.4,0.7-4.8,1.5-7.1,2.4h-0.1
		l-4,3.5c0.1-0.1,2.4-2.1,3.9-3.5c0,0,0,0-0.1-0.1c0,0.1-0.1,0.2-0.2,0.2s-0.3,0-0.4,0c-2.1,1.8-5.9,5.5-8.9,8.1l0.2-0.9
		c0.2,0.1,0.8-0.2,0.8-0.3c0-0.2-0.1-0.4-0.3-0.4c-0.1,0-0.1,0-0.2,0s-0.1,0.1-0.2,0.1l0.7-2.4c0.1,0.1,0.2,0.1,0.4-0.1
		c0.4-0.3,0.2-1-0.1-0.8l-0.1,0.1L76,1.8L76.1,0l-5.4,17.9V18l-0.3,1.2c-0.2,0.2-0.4,0.3-0.5,0.5l0.2-0.6c-0.2,0.1-0.3,0.3-0.5,0.4
		v-0.1l0,0c0,0,0,0,0-0.1l0.3-1.2l-0.3,1.1c0-0.1-0.1-0.1-0.1-0.2c0,0,0,0-0.1-0.1L70,17v0.1h0l-0.1,0.8l0.3-0.8l0,0h0.1l0.1-0.8
		l0,0c0.1-0.4,0.2-0.7,0.3-1.1c0.1-0.4,0.2-0.8,0.3-1.1c0.1-0.3,0.2-0.7,0.2-1c0-0.1,0-0.2,0.1-0.2c0-0.1,0-0.3,0-0.4
		c0-0.2,0-0.5,0.1-0.7s0.2-0.1,0.2-0.1s0.2,0.2,0.4-0.4c0.1-0.3,0.9-4.6,1.8-8l-0.3,0.1c-0.3,0.9-0.7,1.7-1,2.5
		c0.1-0.8,0.4-1.6,0.7-2.4c-0.2,0.1-0.4,0.2-0.6,0.3c-0.4,0.2-0.7,0.3-1.1,0.5c-0.8,2.6-1.1,4.1-1.2,4.2l-1,3.6c0,0-3.1,9.3-0.6,1.1
		l2.5-8.8h-0.1c-0.8,2.5-1.2,4-1.2,4l-0.7,2l-0.1-0.3l1.5-5.5c-0.1,0.1-0.3,0.2-0.4,0.2l-0.7,1.6l-0.6,2h-0.1l0,0l-0.2,0.7l0,0l0,0
		l0.2-0.7L68.5,9l-0.1-0.1c-0.1,0.1-0.2,0.2-0.2,0.3l0.2,0.2l-1.2,2.4v-0.2c-0.1,0.1-0.2,0.2-0.3,0.3l-3.4,12.5l-0.2-0.1l2-7l-2.1,7
		L60.5,23l0.9-0.4l0.1-0.3l-1,0.6L60.4,23l-0.2-0.1c0.4-0.4,0.9-0.7,1.4-0.9c0,0,3.5-10.5,4.5-13.2c-0.3-0.1-1.2,0.6-1.5,0.6
		c0,0.1-3,9.7-3,9.7l2.5-9.6c-0.8,0.3-1.2,0.5-2.2,0.8c-0.1,0-1.7,4.3-1.8,4.2c-0.1,0-0.9,0.4-1.6,0.8l1.6-1.6l-3.5,0.8L48.1,23
		l0.1,0.2l0.1,0.2l0.5,1.5l6.7-6.5l-6.4,7.2l0.6,1.7l0.3,0.1c-0.2,0.3-0.3,0.6-0.5,0.9c-0.1,0.3-0.1,0.6-0.2,0.9
		c0,0.1,0.1,0.3,0.1,0.4l0.1,0.1l0,0l0.3,0.3l-0.3-0.1l0,0l0,0l0,0c-0.2,0-0.3,0-0.5-0.1c0,0,0,0,0,0.1l0,0l0,0
		c0.2,0.2,0.4,0.4,0.6,0.5c0,0,0,0,0.1,0.1l4.4,3.3l-4.2-2.4l8.4,5.5h1.4l-3.2-1.8c0.2-0.1,0.3-0.2,0.5-0.2c0.2-0.1,0.2-0.8,0.4-0.8
		c0,0,0,0.6,0.1,0.6c1.1-0.4,2.2-0.9,3.3-1.5l-0.7,2.4l0.4-0.2l0.6-2.3l0,0l0,0l0.2-0.6h0.2l0.2-0.2l-0.2,0.9l0.8-0.5l0.4-0.4l1-2.6
		L63,32.3l0.1,0.9l0.3-1.1l1.2-4.5l0.5-1.3l0.3-1h0.1c-0.1,0.5-0.2,0.8-0.3,0.9c-0.2,0.9-1.4,5.6-1.5,5.8c0.2-0.2,1.3-2,1.3-2
		s1.4-0.7,1.7-0.9l0.9-2.9l1.2,0.6l-0.3,1l0.3-1l9.1,4.7l-0.2,0.7l-0.4,0.2L77,32l-0.9,0.6L75.8,33l-0.7,1.8H75l0.5-1.8l-0.2-0.8
		l-0.2,1v0.1c-0.1-0.2-0.4-0.3-0.6-0.2l-0.2,0.7c-0.4,0.6-0.8,1.3-0.8,1.3l-0.7,0.3l0,0c-0.1-0.3-0.3,0-0.3,0l0.1,0.2
		c-0.7,0.3-1.5,0.6-1.7,0.7L70.6,37c-0.2,0.2-0.5,0.3-0.5,0.3l0.3,0.1h0.1L69.8,41l-1.5,6.3l0.7-2.6l-0.9,4.4l0,0l0.1-1.7L68,48.1
		c0,0.1,0,0.1,0,0.2c0,0.2,0,0.4-0.1,0.5c-0.1,0.4-0.2,0.8-0.3,1.2c-0.1,0.4-0.2,0.7-0.3,1.1c-0.1,0.3-0.2,0.6-0.2,1
		c0,0.1,0,0.2-0.1,0.2c0,0.1,0,0.2,0,0.4s0,0.4,0,0.7c-0.1,0.2-0.2,0.1-0.2,0.1s-0.2-0.2-0.4,0.4c-0.1,0.3-2.3,10.5-2.8,11.8
		c0.2-0.1,2.6-8.2,2.8-8.3c0.3-0.2-2.3,8.1-2,8.1s1.1-0.5,1.5-0.6c0.3-0.1,2.4-8.5,2.6-8.6l0.9-3.5c0,0,0.1,0,0.6-1.1l-1.3,4.6h0.2
		l0.6-2l0.1,0.1L67,64.6l1.7-4.1l1.2-4.3l0.2-0.2l-0.2,0l0,0l0.2-0.8c0,0.1,0.1,0.1,0.1,0.1l0.3,0.2c0.1-0.1,0.2-0.2,0.2-0.3
		l-0.5-0.4l0.7-2.4l0.1-0.1L70.6,54l0,0c0-0.1,0-0.2,0.1-0.2c0.1-0.1,0.2-0.2,0.3-0.3l0.7-0.8V53l0.4-0.3l0,0L76.9,33
		c0,0.1,0.1,0.2,0.3,0.2l-4,15.8l4.3-16c0.4-0.2,0.5-0.7,0.2-0.7l0.1-0.3l2.3,1.2L78,40.8l2.2-7.5l0.1,0.1l-8.2,28.3l0.1,1.3L76,49
		c0,0.1,0,0.2,0,0.2s0,0.4,0.2,0.2s0-0.5,0-0.5c-0.1,0-0.1,0-0.2-0.1l1-3.6c0,0.1,0,0.1,0.1,0.2l0.1-0.3l0.1,1.1
		c0,0.1,0.1,0.3,0.1,0.4c0,0.1,0,0.2,0,0.3V47l0.6-1.9l0.1,0.1l-0.7,2.7L76.7,48c0,0.2,0,0.3,0,0.5h0.4c0,0,0.1,0,0.1-0.1L77,49.5
		l0,0h-0.2l0.1,0.3l-1.3,4.9l-0.7,5L78.2,48l0.1-0.1l-0.5,2.3l0.1,0.1l1.4-5.2c-0.2,1.4-0.1,1.4-0.1,1.4l-1.2,4
		c0.2,0.2-2.6,9.8-2.4,9.9c0.3,0.2,0.7,1.1,1,1.3s2.5-9.4,2.7-9.1c0.1,0.2-2.3,9.6-2.1,9.7c0.3-1.7,3.9-13,4-13.3
		c0.2-0.6-0.1-0.6-0.1-0.6s-0.1,0-0.1-0.2c0.1-0.2,0.2-0.5,0.3-0.7c0-0.1,0.1-0.3,0.2-0.4c-0.1-0.1-0.1-0.2,0-0.3
		c0.2-0.3,0.3-0.7,0.4-1.1c0.1-0.4,0.2-0.8,0.4-1.3c0.1-0.5,0.2-0.9,0.4-1.4c0.1-0.2,0.1-0.4,0.2-0.6c0-0.1,0.1-0.1,0.1-0.2l0.2-0.9
		L82.4,43l0,0l1.6-4.8l-0.8,3l1.7-5.7l0.5,0.3l1.1-0.1L85,35l0.2-0.8l8.3,1.2l-8-4.4l1.6,0.6l7.3,4.1l1.9,0.1l2.2,0.1L86.7,29.8z
		 M84.1,10.9l-1.8,1.7l-8,6.8L84.1,10.9z M71.7,21.1c0.5,0.3-0.8,0.7-0.8,0.7S71.3,20.8,71.7,21.1 M70.9,9.1v0.5l-1.2,3l0,0
		L70.9,9.1z M57.6,16.4l-0.1,0.3L54,20.2L57.6,16.4z M59.6,16.6L58.3,18l-6,5.8L59.6,16.6z M59.1,22.6c0.1-0.9,0.2-1.8,0.4-2.7
		C59.5,20.8,59.3,21.7,59.1,22.6 M58.6,18.9c0,0-2.3,2.3-2.4,2.3s2.1-2.5,2.1-2.5L58.6,18.9z M56.6,34.2L55,33.5
		c0,0-0.5-0.5-0.4-0.5S57,34.3,56.6,34.2 M60.9,32L53,27.5c0.4,0.2,7,5,7,5l0.7,0.2l-0.2,0.5l-9.7-5.6v-0.1l0.1-0.2l7.9,4.3L51.2,27
		c2-2.2,5.2-5.6,7.4-8c-0.7,2.2-1.5,4.4-2.4,6.5c-0.1,0.3,2.2-0.9,2.2-0.9l0.7-1.4c0,0.2,0,0.4,0,0.6c0.2-0.2,0.4-0.3,0.5-0.5l0,0
		c0.1,0.1,0.4,0.1,0.4,0s0.1-0.3-0.1-0.3l0.1-0.1l0.2,0.1l-0.1,0.1l0.1-0.1l2.7,1.4L60.9,32z M61.4,32.3l-0.3-0.1l2.1-7.5l0.2,0.1
		L61.4,32.3z M67.8,55.9l-0.1-0.5l1.1-3l0,0L67.8,55.9z M69.6,54.3L69.6,54.3l0.4-1.4L69.6,54.3z M74.8,35.5v-0.2l0,0V35.5z
		 M74.6,34.9c-0.1,0-0.1,0.1-0.2,0.2c0,0.1,0,0.1,0.1,0.2L74,37.6l-0.5,1.3l-2.9,11.4c-0.2-0.1-0.3-0.2-0.4-0.3l0.6-0.4
		c0,0,2.5-10.1,2.7-10.7s0.7-3.3,1.1-4.7h0.1l0.4-0.5L74.6,34.9z M80.6,31.8l0.3,0.1l-0.1,0.2L80.5,32L80.6,31.8z M80.4,31.7
		l-0.1,0.2L71,27.2L80.4,31.7z M74.4,25.5c0,0,3.1,1.9,3,1.8c-0.9-0.4-3.8-1.9-3.8-1.9L74.4,25.5z M69.3,19.2l0.2,0.2l-0.1,0.2
		c-0.1,0.1-0.2,0.2-0.4,0.3L69.3,19.2z M69,24.7v-0.1l8.3,5.2l-8.4-4.6L69,24.7z M69.1,10.5l0.2,0.2l-0.5,1.4h-0.1L69.1,10.5z
		 M68.5,9.9L68.5,9.9l-0.7,2.5l0,0L68.5,9.9z M65,25.5L65,25.5l0.1-0.9l0.1,0.1L65,25.5 M65.9,22.6l-0.1,0.1l2.2-8l0.1,0.1l-0.2,0.8
		C67.8,15.5,66.7,19.4,65.9,22.6 M67.1,26.5l0.2-0.6l0.2,0.1l-0.2,0.5l0.4-0.4h0.1c0.2,0.1,0.4,0.3,0.7,0.4L68.3,27L67.1,26.5z
		 M77.5,31.4L77.5,31.4L68.3,27l0.1-0.5l0.2,0.1c0.1,0.1,0.2,0.1,0.3,0.2H69l0.1,0.1c0,0.1,0.1,0.1,0.1,0.1l0,0
		c0.1,0.1,0.2,0.1,0.3,0c0.1-0.1,4.3,2.1,8.4,4.2L77.5,31.4z M80.1,32.8l-2.3-1.1l0.1-0.4c0.8,0.4,1.5,0.8,2.3,1.2L80.1,32.8z
		 M80.3,32.8l0.1-0.3l0.2,0.1L80.5,33h-0.1L80.3,32.8l0.1,0.2L80.3,32.8z M78.3,47.9L78.3,47.9l0.4-1.6L78.3,47.9z M79,38l1.3-4.7
		h0.1L79,38z M79.2,49.9l-0.3,0.5l0.9-4l0,0L79.2,49.9z M79.8,42.5l0.3,0.7c-0.2,0.1-0.4,0.1-0.5,0.1l2.6-9h0.1
		C81.1,37.9,79.8,42.5,79.8,42.5 M82.3,33.8L82.3,33.8v-0.2h0.1L82.3,33.8 M82.5,33.2L82.5,33.2L82.5,33.2L82.5,33.2L82.5,33.2"/>
		<path class="brands09" d="M71.4,17.2L71.4,17.2l0.3-0.2l-0.1-0.3C71.5,16.9,71.5,17,71.4,17.2"/>
		<path class="brands09" d="M70,18.6L69.8,19c0,0,0,0.2,0.3,0.1S70.2,18.5,70,18.6"/>
		<path class="brands09" d="M67.1,48.7c0,0.2,0,0.5-0.1,0.7s-0.1,0.5-0.2,0.8c0,0.1,0,0.1-0.1,0.1l0,0l-3.8,15.3
		L28.5,45.1l33.7,20.6h0.6L62.5,68l-0.1,2l6.2-27.4L67.1,48.7z"/>
		<path class="brands09" d="M48,51.6L48,51.6l4.9,4.6c-2.1-1.7-4.9-3.9-5.1-4.1l-0.3,1.2l7.3,4.8L55,58l0.3,0.3l1.3,0.9
		l-0.2-1.1l-4.8-3.4l6.1,4l1.1-1.2c0,0-0.5-1.1-0.1-1.2s1-1.4,1-1.4l-0.1,2.9l0.2-0.3l-0.1,0.3l4.9-4.3l-0.8-1.7l0.3-0.4l-1.2-3
		l2.8,3.8l-4.4-8.8l1.9,3.5l0.6,1.4l-0.1-0.5l2.1,3.9l0.4-1.8c0,0-1.6-4.4-1.6-4.6c0-0.1,1.7,3.2,2.1,4.1c0-0.1,0.1-0.2,0.1-0.3
		c0-0.2,0-0.5,0.1-0.7v-0.1c-0.7-1.3-4-8.1-4.5-9.4c0.4,1,1.9,5.5,1.9,5.5L61.5,39L61,38.9L60.2,40l0,0l-0.3,0.2
		c-0.1-0.2-0.3-0.4-0.4-0.5c-0.5,0.1-1.1,0.2-1.6,0.4l4.8,8l-5-7.6c-0.8,0.2-1.7,0.5-2.3,0.7c-0.7,0.5-7,7-7,7s0.4,0.4,0.3,0.5
		s1.5-1.1,1.5-1.1c-0.4,0.4-0.8,0.8-1.1,1.2c-0.1,0.4-0.2,0.8-0.4,1.2c0-0.1,0.1-1-0.3-0.8C48,49.4,48,49.6,48,49.9
		c0.1,0.3,0.3,0.2,0.4,0.1c0,0.1-0.1,0.2-0.1,0.3c-0.3,0-0.7,0.1-0.8,0.4c0.2,0.1,0.3,0.1,0.5,0.1C47.8,51.1,47.9,51.4,48,51.6
		 M57.1,54.8l-2.9-1.9l3.5,1.3L57.1,54.8z M59.9,48.5l-2-4.3l0.1-0.3L59.9,48.5z M57.6,43l0.2,0.6l-0.2,0.2l-0.2-0.5L57.6,43z
		 M55.5,42L55,42.7l-4.4,3.9L55.5,42z M50.6,49.4l1,0.1l5.1-5.3c0.1,0.1,0.4,0,0.4,0s0.1-0.3-0.1-0.3l0.3-0.3
		c0.1,0.2,0.1,0.4,0.2,0.6c-0.5,0.5-0.9,1.1-0.9,1.1l0.7,0.2c0,0,0.2-0.4,0.5-0.9c1.2,2.7,3.5,6.4,3.5,7.2c-0.1,1.1-2.5,1.7-3.1,2.3
		L58,54c0.2-0.2,0.4-0.5,0.6-0.8c0.2-0.3-0.6-0.3-0.7-0.2c-0.1,0.1-0.2,0.2-0.3,0.3v0.5c-1-0.5-2-1-3.1-1.3
		c-0.3,0.1-0.5,0.1-0.8,0.1l-1.9-1.1l0,0l0.1-0.6L51,50.8l0.2,0.4l-0.5-0.3c0,0,0,0,0-0.1s0.1-1-0.3-0.8c-0.1,0.2-0.2,0.4-0.2,0.7
		l-0.6-0.4l0,0C50.1,49.8,50.6,49.4,50.6,49.4"/>
		<path class="brands09" d="M32.6,30.3L32.6,30.3l4.2,3.9c-1.8-1.4-4.2-3.4-4.4-3.5l-0.2,1l6.3,4.2l0.1-0.1l0.3,0.3
		l1.1,0.8l-0.2-1L35.7,33l5.2,3.4l1-1c0,0-0.4-1-0.1-1s0.8-1.2,0.8-1.2l-0.1,2.5l0.2-0.2l-0.1,0.2l4.2-3.7l-0.7-1.5l0.2-0.3l-1-2.5
		l2.5,3.3L44,23.3l1.7,3l0.5,1.2L46.1,27l1.8,3.3l0.4-1.5c0,0-1.4-3.8-1.4-3.9s1.4,2.7,1.8,3.5c0-0.1,0-0.2,0.1-0.2
		c0-0.2,0-0.4,0.1-0.6c0,0,0,0,0-0.1c-0.6-1.1-3.4-7-3.9-8.1c0.3,0.9,1.6,4.8,1.6,4.8l-2.4-4.6l-0.4-0.3l-0.7,0.9l0,0l-0.3,0.2
		c-0.1-0.2-0.2-0.3-0.3-0.4c-0.5,0.1-0.9,0.2-1.4,0.3l4.1,6.9l-4.3-6.6c-0.7,0.2-1.4,0.4-2,0.6c-0.6,0.5-6.1,6-6.1,6
		s0.4,0.4,0.3,0.4s1.2-1,1.2-1c-0.4,0.3-0.7,0.7-1,1c-0.1,0.4-0.2,0.7-0.3,1c0-0.1,0.1-0.9-0.2-0.7c-0.1,0.2-0.2,0.5-0.2,0.7
		s0.3,0.1,0.4,0.1c0,0.1-0.1,0.2-0.1,0.3c-0.3,0-0.6,0.1-0.7,0.4c0.1,0.1,0.3,0.1,0.4,0.1C32.5,29.9,32.5,30.1,32.6,30.3 M40.5,33.1
		L38,31.4l3,1.1L40.5,33.1z M42.9,27.6l-1.8-3.7l0.1-0.3L42.9,27.6z M40.9,22.9l0.2,0.5L41,23.6l-0.2-0.4L40.9,22.9z M39.1,22.1
		l-0.4,0.6l-3.8,3.4L39.1,22.1z M34.9,28.4l0.9,0.1l4.4-4.6c0.1,0.1,0.4,0,0.4,0s0.1-0.3-0.1-0.3l0.3-0.3c0.1,0.2,0.1,0.3,0.2,0.5
		c-0.4,0.5-0.8,1-0.8,1l0.6,0.2c0,0,0.2-0.4,0.4-0.8c1,2.3,3.1,5.5,3,6.2c-0.1,0.9-2.1,1.5-2.6,2l-0.2-0.1c0.2-0.2,0.3-0.4,0.5-0.7
		c0.1-0.3-0.5-0.2-0.6-0.2c-0.1,0.1-0.2,0.2-0.3,0.3v0.4c-0.8-0.4-1.7-0.8-2.6-1.1c-0.2,0-0.5,0.1-0.7,0.1L36,30.2l0,0l0.1-0.5
		l-0.6-0.1l0.2,0.4L35,29.7c0,0,0,0,0-0.1s0.1-0.9-0.2-0.7c-0.1,0.2-0.2,0.4-0.2,0.6L34,29.2l0,0C34.5,28.8,34.9,28.4,34.9,28.4"/>
		<path class="brands09" d="M70.6,56.3c0.1,0.3,0.3,0,0.3,0l0.2-0.2c0,0-0.2-0.1-0.3-0.1S70.4,56,70.6,56.3"/>
		<path class="brands09" d="M73,34.5l-0.2-0.3l-0.5,0.4l0.4,0.1L73,34.5z"/>
		<path class="brands09" d="M85.1,27.3c0.3,0.2,0.3,0,0.3,0l-0.2-0.5C85,26.6,84.8,27.1,85.1,27.3"/>
		<path class="brands09" d="M85.8,27.3c-0.2,0.2-0.1,0.4-0.1,0.4l0.5-0.3C86.1,27.4,86,27.1,85.8,27.3"/>
		<path class="brands09" d="M13.7,54.4c-0.1-0.2-0.2-0.4-0.3-0.6c-0.1,0.2-0.2,0.4-0.2,0.4c-0.1,0.1,0.4-1.1,0.4-1.1
		l-0.9,0.2l-2.3,7.9l2-7.8l-0.8,0.2l-0.3-0.3L6.1,69.8L7,68.6l1.6-5.3l-1.2,4.3l1.7-1.4V66c0.3-0.3,0.6-0.6,1-0.9l-0.3,0.8l0.7-1
		l0.1-0.4c0.5-0.5,0.9-0.9,1.5-1.4l2.1-6.5L13.7,54.4L13.7,54.4z M9.9,64.9l-0.3,0.6v-0.3l2.8-9.5L9.9,64.9z M13.1,55.1L11.4,61
		l1.6-6.1l0.2-0.5L13.1,55.1z"/>
	</g>
</svg>
