<svg xmlns="http://www.w3.org/2000/svg"
	xmlns:xlink="http://www.w3.org/1999/xlink" x="0px" y="0px" viewBox="0 0 103 30" style="enable-background:new 0 0 103 30;" xml:space="preserve">
	<style type="text/css">
	.brands02{fill:currentcolor;}
	</style>
	<g>
		<path class="brands02" d="M18.1,6.4c-1.9,0-3.8,0.7-5.2,2c-1.4-1.3-3.2-2-5.2-2C3.5,6.4,0,9.9,0,14.2v5.2
		c0,1.4,1.2,2.5,2.6,2.5s2.6-1.1,2.6-2.5v-5.2c0-1.4,1.2-2.6,2.6-2.6s2.6,1.2,2.6,2.6v5.2c0,1.4,1.2,2.6,2.7,2.5
		c1.4,0,2.5-1.1,2.5-2.5v-5.2c0-1.4,1.2-2.6,2.6-2.6s2.6,1.2,2.6,2.6l0,0v5.2c0,1.4,1.2,2.5,2.6,2.5s2.6-1.1,2.6-2.5v-5.2
		C25.9,9.9,22.4,6.4,18.1,6.4 M13,24.8c-1.4,0-2.6,1.2-2.6,2.6S11.6,30,13,30s2.6-1.2,2.6-2.6C15.5,26,14.4,24.9,13,24.8L13,24.8"/>
		<path class="brands02" d="M30.8,5.1c1.4,0,2.5-1.2,2.5-2.6s-1.1-2.6-2.5-2.6S28.2,1,28.2,2.4v0.1
		C28.3,4,29.4,5.1,30.8,5.1L30.8,5.1 M30.8,6.4c-1.4,0-2.5,1.1-2.6,2.5l0,0v10.4c0,1.4,1.2,2.5,2.6,2.5c1.4,0,2.5-1.1,2.5-2.5V8.9
		C33.4,7.5,32.2,6.4,30.8,6.4L30.8,6.4"/>
		<path class="brands02" d="M68.1,14.2c0-4.3-3.5-7.8-7.8-7.8s-7.8,3.5-7.8,7.8S56,22,60.3,22l0,0
		C64.6,21.9,68,18.5,68.1,14.2 M60.3,16.8c-1.5,0-2.7-1.2-2.7-2.7s1.2-2.7,2.7-2.7l0,0c1.5,0,2.7,1.1,2.7,2.6s-1.1,2.7-2.6,2.7
		C60.4,16.8,60.3,16.8,60.3,16.8"/>
		<path class="brands02" d="M84.8,7.2c-1-1-2.6-1-3.6,0l-6,6V2.6c0-1.4-1.1-2.6-2.5-2.6s-2.6,1.1-2.6,2.5v0.1v16.8
		c-0.1,0.7,0.2,1.4,0.8,1.8c0.5,0.5,1.1,0.7,1.8,0.8c0.7,0,1.3-0.3,1.8-0.8l10.4-10.4C85.8,9.8,85.8,8.2,84.8,7.2 M83,16.8
		c-1.4,0-2.6,1.1-2.6,2.6S81.5,22,83,22s2.6-1.1,2.6-2.6C85.6,18,84.4,16.8,83,16.8L83,16.8"/>
		<path class="brands02" d="M95.2,22L95.2,22c4.3,0,7.8-3.5,7.8-7.8V9c0-1.4-1.2-2.6-2.6-2.6S97.8,7.6,97.8,9v5.2
		c0,1.4-1.2,2.6-2.6,2.6s-2.6-1.2-2.6-2.6V9c0-1.4-1.2-2.6-2.6-2.6S87.4,7.6,87.4,9v5.2C87.4,18.5,90.9,22,95.2,22"/>
		<path class="brands02" d="M42.9,6.4L42.9,6.4c-0.9,0-1.8,0.1-2.6,0.5V2.6c0-1.4-1.1-2.6-2.6-2.6s-2.6,1.1-2.6,2.6v11.2
		c0,0.1,0,0.3,0,0.4v5.2c0,1.4,1.2,2.6,2.6,2.6c1.4,0,2.6-1.2,2.6-2.6v-5.2c0-1.4,1.2-2.6,2.6-2.6c1.4,0,2.6,1.2,2.6,2.6l0,0v5.2
		c0,1.4,1.2,2.6,2.6,2.6l0,0c1.4,0,2.6-1.2,2.6-2.6v-5.2C50.7,9.9,47.2,6.4,42.9,6.4"/>
	</g>
</svg>
