<svg xmlns="http://www.w3.org/2000/svg" xmlns:xlink="http://www.w3.org/1999/xlink" x="0px"
	 y="0px" viewBox="0 0 174.3 30" style="enable-background:new 0 0 174.3 30;" xml:space="preserve">
<style type="text/css">
	.brands07{fill:currentcolor;}
</style>
<g>
	<path class="brands07" d="M13.6,29.8H0V0.4h13.6c3.4,0,6,0.9,7.8,2.7c1.3,1.3,2.1,3.2,2,5c0,3.3-1.2,5.6-3.7,7
		c2.5,1.3,3.7,3.7,3.7,7c0.1,1.9-0.7,3.7-2,5C19.6,28.9,17,29.8,13.6,29.8 M6.8,13.8c2.5-0.7,4.2-1.2,5.3-1.5c0.6-0.2,1-0.3,1.2-0.3
		c0.8-0.2,1.6-0.5,2.4-0.8c0.6-0.4,1-1.1,0.9-1.9c0-1.9-1.3-2.9-3.8-3h-6V13.8z M12.7,24c2.5-0.1,3.8-1,3.8-2.8c0.1-1-0.4-2-1.2-2.7
		c-0.5-0.4-1.1-0.6-1.7-0.6c-0.3,0-0.7,0.1-1,0.1h-0.2l-5.6,1.6V24H12.7z"/>
	<path class="brands07" d="M56.7,30h-7.2L41.1,9.1l-6,15.1h6.3V30H25.7L38,0.4h6.3L56.7,30z"/>
	<rect x="60.3" y="0.4" class="brands07" width="6.9" height="29.4"/>
	<path class="brands07" d="M92,29.9H70.8V0.4h6.9v23.4H92L92,29.9z"/>
	<path class="brands07" d="M95.6,0.4h22.2v6H95.6V0.4z M101.9,23.9h16v6H95.6V12.2h13.9v6h-7.6V23.9z"/>
	<path class="brands07" d="M132.5,18.2L121.4,0.4h8l6.6,11.3l6.7-11.3h7.8l-11.1,17.7v11.7h-6.9V18.2z"/>
	<path class="brands07" d="M163.6,29.8c-2.2,0-4.4-0.4-6.5-1.2c-2.1-0.8-4.1-2-5.8-3.6l3.9-4.8c1.3,1.1,2.7,2,4.2,2.8
		c1.3,0.6,2.8,0.9,4.3,0.9c1,0.1,1.9-0.2,2.7-0.7c0.6-0.4,1-1.2,1-1.9v-0.1c0-0.4-0.1-0.8-0.2-1.1c-0.2-0.3-0.5-0.6-0.8-0.8
		c-0.5-0.3-1.1-0.6-1.7-0.8c-0.8-0.3-1.6-0.6-2.4-0.8l-0.4-0.1c-1.3-0.3-2.6-0.7-3.9-1.2c-1.1-0.4-2.1-0.9-3-1.7
		c-0.8-0.7-1.5-1.5-1.9-2.4c-0.5-1.1-0.7-2.4-0.7-3.6v0.1c0-1.2,0.2-2.4,0.7-3.5s1.2-2,2.1-2.8c1-0.8,2.1-1.4,3.3-1.9
		c1.3-0.4,2.7-0.6,4.1-0.6c2,0,4,0.3,5.8,1s3.5,1.6,4.9,2.8l-3.4,5c-1.2-0.9-2.6-1.6-4-2.3c-1.1-0.5-2.3-0.7-3.5-0.8
		c-0.9-0.1-1.7,0.2-2.5,0.7c-0.6,0.4-0.9,1-0.9,1.7v0.1c0,0.9,0.4,1.7,1.2,2.1c0.6,0.3,1.2,0.6,1.8,0.8c0.5,0.2,1.1,0.3,1.8,0.5
		c0.3,0.1,0.7,0.2,1.1,0.3c1.3,0.3,2.6,0.8,3.9,1.3c1,0.4,2,1,2.9,1.8c0.8,0.7,1.4,1.5,1.8,2.4c0.4,1,0.6,2.1,0.6,3.3v0.1
		c0,1.3-0.2,2.6-0.8,3.8c-0.5,1.1-1.2,2.1-2.2,2.8c-1,0.8-2.2,1.4-3.4,1.8C166.5,29.6,165.1,29.8,163.6,29.8"/>
</g>
</svg>
