<svg xmlns="http://www.w3.org/2000/svg" xmlns:xlink="http://www.w3.org/1999/xlink" x="0px" y="0px"
	 viewBox="0 0 100 100" style="enable-background:new 0 0 100 100;" xml:space="preserve">
<style type="text/css">
	.calender-icon01{fill:none;stroke:currentcolor;stroke-width:3;stroke-linecap:round;}
</style>
<g transform="translate(-1151.988 -602.989)">
	<line class="calender-icon01" x1="1185.7" y1="629.3" x2="1218.3" y2="629.3"/>
	<path class="calender-icon01" d="M1225.4,629.3h7c2.1,0,3.7,1.7,3.7,3.7c0,0,0,0,0,0v46.1c0,2.1-1.7,3.7-3.7,3.7c0,0,0,0,0,0
		h-60.9c-2.1,0-3.7-1.7-3.7-3.7l0,0V633c0-2.1,1.7-3.7,3.7-3.7l0,0h7.4"/>
	<path class="calender-icon01" d="M1182.2,635.5L1182.2,635.5c-1.8,0-3.3-1.5-3.3-3.3v-5.8c0-1.8,1.5-3.3,3.3-3.3s3.3,1.5,3.3,3.3
		v5.8C1185.5,634,1184,635.5,1182.2,635.5C1182.2,635.5,1182.2,635.5,1182.2,635.5z"/>
	<path class="calender-icon01" d="M1221.8,635.5L1221.8,635.5c-1.8,0-3.3-1.5-3.3-3.3v-5.8c0-1.8,1.5-3.3,3.3-3.3
		c1.8,0,3.3,1.5,3.3,3.3v5.8C1225.1,634,1223.6,635.5,1221.8,635.5z"/>
	<line class="calender-icon01" x1="1167.8" y1="643.5" x2="1236.2" y2="643.5"/>
	<path class="calender-icon01" d="M1177.2,651.4h2.5c1.1,0,2,0.9,2,2v2.5c0,1.1-0.9,2-2,2h-2.5c-1.1,0-2-0.9-2-2v-2.5
		C1175.2,652.3,1176.1,651.4,1177.2,651.4z"/>
	<path class="calender-icon01" d="M1177.2,668.4h2.5c1.1,0,2,0.9,2,2v2.5c0,1.1-0.9,2-2,2h-2.5c-1.1,0-2-0.9-2-2v-2.5
		C1175.2,669.3,1176.1,668.4,1177.2,668.4z"/>
	<path class="calender-icon01" d="M1192.7,651.4h2.5c1.1,0,2,0.9,2,2v2.5c0,1.1-0.9,2-2,2h-2.5c-1.1,0-2-0.9-2-2v-2.5
		C1190.8,652.3,1191.6,651.4,1192.7,651.4z"/>
	<path class="calender-icon01" d="M1192.7,668.4h2.5c1.1,0,2,0.9,2,2v2.5c0,1.1-0.9,2-2,2h-2.5c-1.1,0-2-0.9-2-2v-2.5
		C1190.8,669.3,1191.6,668.4,1192.7,668.4z"/>
	<path class="calender-icon01" d="M1208.3,651.4h2.5c1.1,0,2,0.9,2,2v2.5c0,1.1-0.9,2-2,2h-2.5c-1.1,0-2-0.9-2-2v-2.5
		C1206.3,652.3,1207.2,651.4,1208.3,651.4z"/>
	<path class="calender-icon01" d="M1208.3,668.4h2.5c1.1,0,2,0.9,2,2v2.5c0,1.1-0.9,2-2,2h-2.5c-1.1,0-2-0.9-2-2v-2.5
		C1206.3,669.3,1207.2,668.4,1208.3,668.4z"/>
	<path class="calender-icon01" d="M1223.9,651.4h2.5c1.1,0,2,0.9,2,2v2.5c0,1.1-0.9,2-2,2h-2.5c-1.1,0-2-0.9-2-2v-2.5
		C1221.9,652.3,1222.8,651.4,1223.9,651.4z"/>
	<path class="calender-icon01" d="M1223.9,668.4h2.5c1.1,0,2,0.9,2,2v2.5c0,1.1-0.9,2-2,2h-2.5c-1.1,0-2-0.9-2-2v-2.5
		C1221.9,669.3,1222.8,668.4,1223.9,668.4z"/>
</g>
</svg>
