<svg xmlns="http://www.w3.org/2000/svg" xmlns:xlink="http://www.w3.org/1999/xlink" x="0px" y="0px" viewBox="0 0 100 100" style="enable-background:new 0 0 100 100;" xml:space="preserve">	<style type="text/css">	.down-arrow-0{fill:currentcolor;}	</style>	<g transform="translate(0 15.4) rotate(-90)">		<g>			<g transform="translate(0 0)">				<path class="down-arrow-0" d="M-81.5,52.8L-81.5,52.8c-0.2-0.5-0.3-0.9-0.4-1.4c0,0,0,0,0-0.1c-0.2-0.9-0.2-1.8,0-2.7    c0,0,0,0,0-0.1c0.1-0.4,0.2-0.9,0.4-1.3l0-0.1c0.2-0.4,0.4-0.8,0.6-1.2l0.1,0c0.3-0.4,0.6-0.8,0.9-1.2l29.6-29.6    c2.9-2.9,7.6-2.9,10.5,0c2.9,2.9,2.9,7.6,0,10.5l-17,17H5.5c4.1,0,7.4,3.3,7.4,7.4s-3.3,7.4-7.4,7.4h-62.3l17,17    c2.9,2.9,2.9,7.6,0,10.5c-2.9,2.9-7.6,2.9-10.5,0l-29.6-29.6c-0.3-0.4-0.7-0.7-0.9-1.2l0-0.1C-81.2,53.6-81.4,53.2-81.5,52.8"></path>			</g>		</g>	</g></svg>