<svg xmlns="http://www.w3.org/2000/svg" xmlns:xlink="http://www.w3.org/1999/xlink" x="0px" y="0px" viewBox="0 0 20.8 16.5" style="enable-background:new 0 0 20.8 16.5;" xml:space="preserve">	<path class="wdt-custom-headpopup-line-1" d="M20,7.5h-9.4c-0.4,0-0.8,0.3-0.8,0.8S10.2,9,10.7,9H20c0.4,0,0.8-0.3,0.8-0.8S20.5,7.5,20,7.5z"></path>	<path class="wdt-custom-headpopup-line-2" d="M20,15H6.4c-0.4,0-0.8,0.3-0.8,0.8s0.3,0.8,0.8,0.8H20c0.4,0,0.8-0.3,0.8-0.8S20.5,15,20,15z"></path>	<path class="wdt-custom-headpopup-line-3" d="M20.8,0.8C20.8,0.3,20.5,0,20,0H0.8C0.3,0,0,0.3,0,0.8s0.3,0.8,0.8,0.8H20C20.5,1.5,20.8,1.2,20.8,0.8z"></path></svg>