<svg xmlns="http://www.w3.org/2000/svg" xmlns:xlink="http://www.w3.org/1999/xlink" x="0px" y="0px" viewBox="0 0 100 100" style="enable-background:new 0 0 100 100;" xml:space="preserve">	<style type="text/css">	.icon-10{fill:currentcolor;}	</style>	<g>		<g>			<path class="icon-10" d="M10.6,18h7.8c2.6,0,4.6,2.1,4.6,4.6v22.7c0,8.4,9.7,15.3,23.4,17.7l-4.8,7.7   c-7-2.8-14.9,0.6-17.7,7.6s0.6,14.9,7.6,17.7c7,2.8,14.9-0.6,17.7-7.6c0.4-0.9,0.6-1.9,0.8-2.8h14.5c1.2,7.4,8.2,12.5,15.6,11.3   s12.5-8.2,11.3-15.6c-1.2-7.4-8.2-12.5-15.6-11.3c-1,0.2-1.9,0.4-2.9,0.8L68.2,63c13.7-2.4,23.4-9.3,23.4-17.7V35.2c0,0,0,0,0,0   s0,0,0,0C91.6,17.4,77.2,3,59.5,3c-1.2,0-2.2,1-2.2,2.2c0,0,0,0,0,0V33H36.7c-1.2,0-2.2,1-2.2,2.2c0,1.2,1,2.2,2.2,2.2h50.5v7.9   c0,7.7-13.7,14.2-29.9,14.2S27.5,53,27.5,45.3V22.6c0-5-4-9-9-9h-7.8c-1.2,0-2.2,1-2.2,2.2C8.4,17,9.4,17.9,10.6,18 M87.1,32.9   H64.8L76.7,21c0.9-0.9,0.9-2.3,0-3.1s-2.3-0.9-3.1,0L61.7,29.8V7.5C75.3,8.6,86,19.3,87.1,32.9 M36.7,92.6c-5.1,0-9.2-4.1-9.2-9.2   c0-5.1,4.1-9.2,9.2-9.2s9.2,4.1,9.2,9.2l0,0C45.9,88.5,41.8,92.6,36.7,92.6 M87.2,83.4c0,5.1-4.1,9.2-9.2,9.2   c-5.1,0-9.2-4.1-9.2-9.2c0-5.1,4.1-9.2,9.2-9.2h0C83.1,74.2,87.2,78.3,87.2,83.4 M63.4,63.7l5.8,9.4c-2.5,2.1-4.1,5-4.6,8.2H50.1   c-0.5-3.2-2.2-6.1-4.6-8.2l5.8-9.4c2,0.2,4,0.3,6.1,0.3S61.4,63.8,63.4,63.7"></path>		</g>	</g></svg>