<svg xmlns="http://www.w3.org/2000/svg" xmlns:xlink="http://www.w3.org/1999/xlink" x="0px" y="0px" viewBox="0 0 100 100" style="enable-background:new 0 0 100 100;" xml:space="preserve">	<style type="text/css">	.img-icon-2{fill:none;stroke:currentcolor;stroke-width:3;stroke-linecap:round;stroke-linejoin:round;}	</style>	<g transform="translate(-268.304 -2331.304)">		<line class="img-icon-2" x1="365.2" y1="2365.9" x2="344.8" y2="2365.9"></line>		<line class="img-icon-2" x1="291.6" y1="2373.3" x2="292.7" y2="2373.3"></line>		<line class="img-icon-2" x1="274.8" y1="2373.3" x2="276" y2="2373.3"></line>		<line class="img-icon-2" x1="283.8" y1="2378.1" x2="285" y2="2378.1"></line>		<line class="img-icon-2" x1="290.8" y1="2365.8" x2="271.5" y2="2365.8"></line>		<line class="img-icon-2" x1="298.4" y1="2385.3" x2="271.5" y2="2385.3"></line>		<line class="img-icon-2" x1="360.8" y1="2373.3" x2="361.9" y2="2373.3"></line>		<line class="img-icon-2" x1="344" y1="2373.3" x2="343.1" y2="2373.3"></line>		<line class="img-icon-2" x1="353" y1="2378.1" x2="352" y2="2378.1"></line>		<line class="img-icon-2" x1="365.2" y1="2385.3" x2="337.3" y2="2385.3"></line>		<line class="img-icon-2" x1="326.1" y1="2373.3" x2="325.2" y2="2373.3"></line>		<line class="img-icon-2" x1="310.4" y1="2373.3" x2="309.4" y2="2373.3"></line>		<line class="img-icon-2" x1="318.3" y1="2378.1" x2="317.4" y2="2378.1"></line>		<line class="img-icon-2" x1="329.3" y1="2365.9" x2="306.3" y2="2365.8"></line>		<line class="img-icon-2" x1="323.3" y1="2385.3" x2="312.2" y2="2385.3"></line>		<path class="img-icon-2" d="M364.2,2339.1L364.2,2339.1c-19.5,11.2-32.6,30.9-35.2,53.2l-0.9,8h13l-23.2,23.1l-23.2-23.1  h13l-0.8-7.4c-2.5-22.1-15.1-41.7-34.2-53.1l-1.2-0.7"></path>	</g></svg>