<svg xmlns="http://www.w3.org/2000/svg" xmlns:xlink="http://www.w3.org/1999/xlink" x="0px" y="0px" viewBox="0 0 100 100" style="enable-background:new 0 0 100 100;" xml:space="preserve">	<style type="text/css">	.icon-11{fill:currentcolor;}	</style>	<g>		<g>			<path class="icon-11" d="M75.5,80.1c-1.3,0-2.3,1.1-2.3,2.4c0,1.3,1,2.3,2.3,2.3c12.8,0,22.2-10.1,22.2-24.1V22.4   c0-3.9-3.2-7.1-7.2-7.2H9.5c-3.9,0-7.1,3.2-7.2,7.2v38.4c0,13.9,9.3,24.1,22.2,24.1c1.3,0,2.4-1,2.4-2.3s-1-2.4-2.3-2.4   c0,0-0.1,0-0.1,0C14.4,80.1,7,71.9,7,60.7v-1.2C7.8,59.8,8.6,60,9.5,60h2.4c9.5,0,20.5,4.6,20.5,17.7c0,3.9,3.2,7.1,7.2,7.1h20.9   c3.9,0,7.1-3.2,7.2-7.2c0-11.7,6.9-17.7,20.5-17.7h2.4c0.8,0,1.7-0.2,2.5-0.4v1.2C93,71.9,85.6,80.1,75.5,80.1 M93,42H77.7   c-1,0-1.7-0.8-1.7-1.7v-6.2c0-1,0.8-1.7,1.7-1.7H93V42z M7,32.3h15.3c1,0,1.7,0.8,1.7,1.7v6.2c0,1-0.8,1.7-1.7,1.7H7V32.3z    M90.5,55.3h-2.4c-16.3,0-25.2,7.9-25.2,22.4c0,1.4-1.1,2.4-2.5,2.5H39.6c-1.4,0-2.5-1.1-2.5-2.5c0-15.5-12.7-22.4-25.2-22.4H9.5   c-1.4,0-2.4-1.1-2.5-2.4v-6.1h15.3c3.6,0,6.4-2.9,6.4-6.4v-6.2c0-3.6-2.9-6.4-6.4-6.4H7v-5.3c0-1.4,1.1-2.4,2.5-2.5h81.1   c1.4,0,2.4,1.1,2.5,2.5v5.3H77.7c-3.6,0-6.4,2.9-6.4,6.4v6.2c0,3.6,2.9,6.4,6.4,6.4H93v6.1C93,54.2,91.9,55.3,90.5,55.3"></path>		</g>	</g></svg>