<svg xmlns="http://www.w3.org/2000/svg" xmlns:xlink="http://www.w3.org/1999/xlink" x="0px" y="0px" viewBox="0 0 100 100" style="enable-background:new 0 0 100 100;" xml:space="preserve">	<style type="text/css">	.icon-13{fill:currentcolor;}	</style>	<g transform="translate(0 0.001)">		<g>			<g transform="translate(0 -0.001)">				<path class="icon-13" d="M78,24.2v-1.6c0-1.1-0.9-2-2-2c-1.1,0-2,0.9-2,2c0,0,0,0,0,0v1.6c0,1.1,0.9,2,2,2    C77.1,26.2,78,25.4,78,24.2C78,24.3,78,24.2,78,24.2"></path>				<path class="icon-13" d="M50,95.9c26,0,43.5-7.8,48.2-21.3c0.4-1-0.2-2.2-1.2-2.5c-1-0.4-2.2,0.2-2.5,1.2    C90.4,85.1,74.2,91.9,50,91.9S9.2,85,5.6,73.3c-0.3-1.1-1.4-1.7-2.5-1.4s-1.7,1.4-1.4,2.5c0,0,0,0.1,0,0.1    C6.1,88.1,23.6,95.9,50,95.9"></path>				<path class="icon-13" d="M26,84.2c1.1,0,2-0.9,2-2c0-11.4,9.1-19.4,22.1-19.4s22.1,8,22.1,19.4c0,1.1,0.9,2,2,2    c1.1,0,2-0.9,2-2c0-13.8-10.7-23.4-26-23.4s-26,9.6-26,23.4C24,83.3,24.9,84.2,26,84.2"></path>				<path class="icon-13" d="M24,44c-1.1-0.2-2.1,0.5-2.3,1.5c0,0,0,0,0,0l-6.9,32.8c-0.2,1.1,0.5,2.1,1.5,2.3    c0.1,0,0.3,0,0.4,0c0.9,0,1.7-0.7,1.9-1.6l6.9-32.8C25.7,45.3,25,44.2,24,44"></path>				<path class="icon-13" d="M76.8,6.1c0-1.1-0.8-2-1.9-2c0,0,0,0,0,0c-9.4,0-17.1,7.7-17.1,17.1v10.6H26    c-6,0-11.1,4.4-11.8,10.4c-1.4,11.4-7.6,14-7.9,14.1c-1,0.4-1.5,1.5-1.1,2.6c0.4,1,1.5,1.5,2.5,1.2c0.4-0.1,8.8-3.3,10.5-17.4    c0.5-4,3.9-6.9,7.9-6.9h7.4c0.5,15.8,6.7,17.1,14.8,17.1c8.1,0,13.4-1.3,13.4-19.1V21.2c0-6.5,4.7-12,11.1-13l-0.2,6    c0,0.9,0.6,1.7,1.4,2l16.2,4.6c1.3,0.4,2.2,1.5,2.2,5c-0.3,3-2.8,5.3-5.8,5.3h-0.1L74,31.8c-1.1,0.1-1.9,1-1.9,2.1    c0,0.1,0,0.2,0,0.3l9.2,45c0.2,0.9,1,1.6,1.9,1.6c0.1,0,0.3,0,0.4,0c1.1-0.2,1.8-1.3,1.5-2.3c0,0,0,0,0,0l-8.7-42.7L86.7,35    c5.2,0,9.5-4.1,9.8-9.3c0-2,0-7.2-5-8.8l-14.8-4.2L76.8,6.1z M48.3,48.9c-6.2,0-10.5,0-10.8-13.1h20.3    C57.4,48.9,54.3,48.9,48.3,48.9"></path>			</g>		</g>	</g></svg>