<svg xmlns="http://www.w3.org/2000/svg" xmlns:xlink="http://www.w3.org/1999/xlink" x="0px" y="0px" viewBox="0 0 100 100" style="enable-background:new 0 0 100 100;" xml:space="preserve">	<style type="text/css">	.image-icon-1{fill:none;stroke:currentcolor;stroke-width:3;stroke-linecap:round;stroke-linejoin:round;}	</style>	<g transform="translate(-512.48 -2294.5)">		<path class="image-icon-1" d="M563.7,2362.6c4-0.4,13.4-2.9,17.3-17l-9.1,1.8c8.2-4.1,13.3-12.5,13.2-21.6l-6.2,2.7  c0,0,12.8-17-2.3-32.1c0,0-0.6,5.7-8.1,10.3c-8.3,5.1-11.1,11.8-9.6,25.4l-4-5.1c0,0-10.5,17.3-3,30.2"></path>		<path class="image-icon-1" d="M571.8,2319.4c-1.9,9.4-8.1,34.9-22.3,53.8"></path>		<path class="image-icon-1" d="M544.4,2331.5c-9.7,5.1-22.6,6.7-27.1,7.2c-0.5,0.1-0.9,0.5-0.9,1.1c0,0.2,0.1,0.3,0.2,0.5  l0.3,0.4c11,15,18.9,32.1,23.3,50.2l0.2,0.9c0.1,0.5,0.6,0.9,1.2,0.7c0.1,0,0.1,0,0.2-0.1l0.5-0.2c20.3-9.1,41.8-15.3,63.9-18.5  l1.7-0.3c0.5-0.1,0.9-0.6,0.8-1.1c0-0.1-0.1-0.3-0.2-0.4c-3.2-4.5-13.9-20.2-17.9-32"></path>	</g></svg>