<svg xmlns="http://www.w3.org/2000/svg" xmlns:xlink="http://www.w3.org/1999/xlink" x="0px" y="0px" viewBox="0 0 100 100" style="enable-background:new 0 0 100 100;" xml:space="preserve">	<style type="text/css">	.icon-12{fill:currentcolor;}	</style>	<g>		<g>			<path class="icon-12" d="M50,50.4c0.5,0,1.1-0.2,1.5-0.6l7.9-7c0,0,3-2.6,5.9-5.6c5.5-5.4,10-10.6,10-18.2   c0-8.6-6.5-15.7-14.5-15.7c-4.7,0-8.4,4.1-10.7,7.4c-2.2-3.4-6-7.7-10.9-7.7c-8,0-14.5,7-14.5,15.7c0,7.7,4.2,13,16,23.9l7.8,7.2   C48.9,50.2,49.4,50.4,50,50.4 M29.2,18.7c0-6.2,4.5-11.2,10-11.2c3.2,0,6.7,4.3,8.8,8.5c0.1,0.2,0.2,0.4,0.4,0.5   c0.8,0.9,2.2,1,3.1,0.2c0.2-0.2,0.4-0.4,0.5-0.7c2-3.9,5.4-8.4,8.7-8.4c5.5,0,10,5,10,11.2c0,5.9-3.6,10-8.7,15   c-2.9,2.9-5.7,5.4-5.7,5.4L50,45.1l-6.3-5.8C31.4,27.9,29.2,24,29.2,18.7"></path>			<path class="icon-12" d="M38.9,96.9c1.2,0,2.2-1,2.2-2.2V77.2c0-6.7-5.2-11.6-9.8-15.9c-2.8-2.7-5.8-5.4-5.8-7.4v-9.5   c0.2-4.6-2.5-8.7-6.8-10.3c-0.1-2.1-0.2-7.4,0-12.6c0.4-8.4-3.1-12.6-6.9-13.2C9,7.9,5,9.8,3.4,16.6C1.7,25.1,1,33.7,1.5,42.3   c0,1.7,0,3.4,0,5c0,19.6,7.1,28.1,11.8,33.7c2.1,2.5,3.6,4.3,3.6,6v7.5c0,1.2,1,2.2,2.2,2.2s2.2-1,2.2-2.2v-7.5   c0-3.4-2.1-5.9-4.6-8.9C12.2,72.8,6,65.4,6,47.4c0-1.7,0-3.4,0-5.1C5.5,34,6.1,25.7,7.7,17.6c0.8-3.4,2.4-5.1,3.6-4.9   c1.4,0.2,3.3,3,3,8.5c-0.2,4.6-0.2,9.2-0.1,11.8c-0.3,0-0.6,0-0.9,0c-1.2,0-2.2,1-2.2,2.2v13.6c-0.1,5,0.5,10,1.9,14.9   c0.4,1.2,1.7,1.8,2.8,1.4c1.2-0.4,1.8-1.7,1.4-2.8l0,0c-1.2-4.4-1.7-8.9-1.6-13.5V37.7c3.3,0.5,5.7,3.4,5.6,6.7v9.5   c0,3.9,3.5,7.2,7.2,10.6c3.9,3.7,8.4,7.9,8.4,12.6v17.5C36.7,95.9,37.7,96.9,38.9,96.9"></path>			<path class="icon-12" d="M94,47.4c0,18-6.2,25.4-10.8,30.9c-2.5,3-4.6,5.5-4.6,8.9v7.5c0,1.2,1,2.2,2.2,2.2   c1.2,0,2.2-1,2.2-2.2l0,0v-7.5c0-1.7,1.5-3.5,3.6-6c4.7-5.6,11.8-14.1,11.8-33.7c0-1.7,0-3.3,0-5c0.5-8.6-0.2-17.3-1.9-25.8   C95,9.8,91,7.9,88.1,8.3c-3.7,0.5-7.3,4.8-6.9,13.2c0.3,5.3,0.1,10.5,0,12.7c-4.3,1.6-7,5.8-6.8,10.3v9.5c0,1.9-2.9,4.7-5.8,7.4   c-4.6,4.3-9.8,9.2-9.8,15.9v17.5c0,1.2,1,2.2,2.2,2.2c1.2,0,2.2-1,2.2-2.2V77.2c0-4.7,4.5-8.9,8.4-12.6c3.7-3.5,7.2-6.8,7.2-10.6   v-9.5c-0.1-3.3,2.3-6.2,5.6-6.7v11.1c0.1,4.5-0.4,9.1-1.6,13.5c-0.4,1.2,0.2,2.4,1.4,2.8c1.2,0.4,2.4-0.2,2.8-1.4l0,0   c1.4-4.8,2-9.9,1.9-14.9V35.2c0-1.2-1-2.2-2.2-2.2c-0.3,0-0.6,0-0.9,0c0.1-2.6,0.1-7.2-0.1-11.8c-0.3-5.5,1.6-8.3,3-8.5   c1.1-0.2,2.8,1.5,3.6,4.9c1.6,8.1,2.3,16.4,1.8,24.7C94.1,44,94,45.7,94,47.4"></path>		</g>	</g></svg>