<svg xmlns="http://www.w3.org/2000/svg" xmlns:xlink="http://www.w3.org/1999/xlink" x="0px" y="0px" viewBox="0 0 100 100" style="enable-background:new 0 0 100 100;" xml:space="preserve">	<g transform="translate(-857.945 -7878)">		<path d="M903.6,7879.3c-21.1,2.9-36.2,21.7-34.6,42.9c2.4,27.2,27.4,47.5,36,53.7c1.7,1.2,4,1.2,5.6-0.1  c8.9-7,36.3-30.5,36.3-57.8c0-21.6-17.5-39-39-39C906.5,7879.1,905,7879.2,903.6,7879.3 M907.9,7933.6c-8.6,0-15.5-6.9-15.5-15.5  c0-8.6,6.9-15.5,15.5-15.5c8.6,0,15.5,6.9,15.5,15.5c0,0,0,0,0,0C923.4,7926.7,916.5,7933.6,907.9,7933.6"></path>	</g></svg>