<svg xmlns="http://www.w3.org/2000/svg" xmlns:xlink="http://www.w3.org/1999/xlink" x="0px" y="0px" viewBox="0 0 16.5 16.5" style="enable-background:new 0 0 16.5 16.5;" xml:space="preserve">	<path d="M16.5,8.3c0-4.5-3.7-8.3-8.3-8.3S0,3.7,0,8.3c0,2.9,1.5,5.4,3.7,6.9c0,0,0,0,0,0c1.3,0.8,2.8,1.3,4.5,1.3  c1.7,0,3.2-0.5,4.5-1.3c0,0,0,0,0,0C15,13.7,16.5,11.1,16.5,8.3z M1.5,8.3c0-3.7,3-6.8,6.8-6.8c3.7,0,6.8,3,6.8,6.8  c0,2-0.8,3.7-2.2,4.9c-0.6-1.7-2.2-3-4.1-3.2c-1.3-0.1-2.6,0.3-3.6,1.1c-0.7,0.6-1.2,1.3-1.5,2.1C2.3,12,1.5,10.2,1.5,8.3z   M4.9,14.1c0.2-0.7,0.6-1.4,1.1-1.9c0.7-0.6,1.6-0.8,2.5-0.8c1.5,0.1,2.6,1.2,3,2.6c-1,0.6-2.1,0.9-3.3,0.9C7,15,5.9,14.7,4.9,14.1  z"></path>	<path d="M8.3,8.2c1.3,0,2.4-1.1,2.4-2.4S9.6,3.3,8.3,3.3c-1.3,0-2.4,1.1-2.4,2.4S6.9,8.2,8.3,8.2z M8.3,4.8c0.5,0,0.9,0.4,0.9,0.9  S8.8,6.7,8.3,6.7S7.3,6.3,7.3,5.8S7.7,4.8,8.3,4.8z"></path></svg>