<svg xmlns="http://www.w3.org/2000/svg" xmlns:xlink="http://www.w3.org/1999/xlink" x="0px" y="0px" viewBox="0 0 100 100" style="enable-background:new 0 0 100 100;" xml:space="preserve">	<g transform="translate(-830.001 -7883)">		<path d="M923,7913.8l-37.4-23.3c-3.4-2.1-7.8-2.1-11.2,0l-37.4,23.3c-2.8,1.7-4.6,4.8-4.6,8.1v45.6  c0.1,5.4,4.5,9.7,9.9,9.7c0,0,0,0,0,0h75.3c5.4,0.1,9.8-4.3,9.9-9.7v-45.6C927.6,7918.6,925.8,7915.5,923,7913.8 M867.8,7952.3  l-23.2,18c-1.4,1.1-3.4,0.9-4.5-0.5c-1.1-1.4-0.9-3.4,0.5-4.5c0,0,0.1-0.1,0.1-0.1l23.2-18c1.4-1.1,3.4-0.9,4.5,0.5  c1.1,1.4,0.9,3.4-0.5,4.5C867.9,7952.2,867.9,7952.3,867.8,7952.3 M876.9,7944.7l-29.4-20.8c-1.8-1.3-2.2-3.8-0.9-5.6  c0.8-1.1,2-1.7,3.4-1.7h60c2.2-0.1,4.1,1.7,4.1,3.9c0,1.3-0.6,2.6-1.7,3.4l-29.4,20.8C881.2,7946,878.8,7946,876.9,7944.7   M919.9,7969.7c-1.1,1.4-3.1,1.7-4.5,0.6c0,0,0,0,0,0l-23.2-18c-1.4-1.1-1.7-3.1-0.7-4.5s3.1-1.7,4.5-0.7c0,0,0.1,0.1,0.1,0.1  l23.2,18C920.8,7966.3,921,7968.4,919.9,7969.7"></path>		<path d="M891.6,7922.7H871c-2.1,0-3.9,1.7-3.9,3.9c0,2.1,1.7,3.9,3.9,3.9c0,0,0,0,0,0h20.6c2.1,0,3.9-1.7,3.9-3.9  C895.4,7924.4,893.7,7922.7,891.6,7922.7"></path>	</g></svg>