<svg xmlns="http://www.w3.org/2000/svg" xmlns:xlink="http://www.w3.org/1999/xlink" x="0px" y="0px" viewBox="0 0 100 100" style="enable-background:new 0 0 100 100;" xml:space="preserve">	<g transform="translate(-786 -7681)">		<path d="M883.9,7770.3l-4.4-13.2c-0.2-0.8-0.2-1.6,0.2-2.3c8.7-16.9,2-37.6-14.8-46.2c-1.5-0.8-3.1-1.4-4.7-2  c3,7.4,3.9,15.4,2.4,23.3c-3.1,16.3-16,29-32.3,32c-2.1,0.4-4.2,0.6-6.3,0.6c10.4,11.3,27,14.2,40.7,7.3c0.7-0.4,1.5-0.4,2.2-0.2  l13.2,4.4c1.6,0.5,3.2-0.3,3.7-1.9C884.1,7771.6,884.1,7770.9,883.9,7770.3"></path>		<path d="M816.3,7688.4c-18.6,3.6-30.7,21.6-27.1,40.2c0.6,3.2,1.7,6.3,3.2,9.1c0.4,0.7,0.4,1.5,0.2,2.3l-4.4,13.2  c-0.5,1.6,0.3,3.2,1.9,3.7c0.6,0.2,1.3,0.2,1.9,0l13.2-4.4c0.7-0.2,1.6-0.2,2.2,0.2c16.9,8.6,37.6,1.8,46.2-15.1  c8.6-16.9,1.8-37.6-15.1-46.2C831.6,7688.1,823.8,7687,816.3,7688.4 M825,7732.9H808c-1.7,0-3-1.4-3-3s1.4-3,3-3H825  c1.7,0,3,1.4,3,3S826.7,7732.9,825,7732.9 M837.2,7720.7H808c-1.7,0-3-1.4-3-3s1.4-3,3-3h29.3c1.7,0,3,1.4,3,3  S838.9,7720.7,837.2,7720.7"></path>	</g></svg>