<svg xmlns="http://www.w3.org/2000/svg" xmlns:xlink="http://www.w3.org/1999/xlink" x="0px" y="0px"
	 viewBox="0 0 100 100" style="enable-background:new 0 0 100 100;" xml:space="preserve">
<style type="text/css">
	.multi03{fill:none;stroke:currentcolor;stroke-width:3;stroke-linecap:round;stroke-linejoin:round;}
</style>
<g transform="translate(-1478.943 -4201.929)">
	<g transform="translate(1480.443 4203.429)">
		<line class="multi03" x1="2.1" y1="11.4" x2="20.9" y2="11.4"/>
		<line class="multi03" x1="38.9" y1="11.4" x2="57.7" y2="11.4"/>
		<line class="multi03" x1="29.8" y1="2.1" x2="29.8" y2="20.7"/>
		<line class="multi03" x1="76.1" y1="11.4" x2="94.9" y2="11.4"/>
		<line class="multi03" x1="67" y1="2.1" x2="67" y2="20.7"/>
		<line class="multi03" x1="2.1" y1="48.6" x2="20.9" y2="48.6"/>
		<line class="multi03" x1="38.9" y1="48.6" x2="57.7" y2="48.6"/>
		<line class="multi03" x1="29.8" y1="39.3" x2="29.8" y2="57.9"/>
		<line class="multi03" x1="76.1" y1="48.6" x2="94.9" y2="48.6"/>
		<line class="multi03" x1="67" y1="39.3" x2="67" y2="57.9"/>
		<line class="multi03" x1="2.1" y1="85.6" x2="20.9" y2="85.6"/>
		<line class="multi03" x1="38.9" y1="85.6" x2="57.7" y2="85.6"/>
		<line class="multi03" x1="29.8" y1="76.3" x2="29.8" y2="94.9"/>
		<line class="multi03" x1="76.1" y1="85.6" x2="94.9" y2="85.6"/>
		<line class="multi03" x1="67" y1="76.3" x2="67" y2="94.9"/>
		<line class="multi03" x1="20.6" y1="30" x2="39.4" y2="30"/>
		<line class="multi03" x1="57.4" y1="30" x2="76.2" y2="30"/>
		<line class="multi03" x1="48.3" y1="20.7" x2="48.3" y2="39.3"/>
		<line class="multi03" x1="85.5" y1="20.7" x2="85.5" y2="39.3"/>
		<line class="multi03" x1="10.9" y1="20.7" x2="10.9" y2="39.3"/>
		<line class="multi03" x1="20.6" y1="67.1" x2="39.4" y2="67.1"/>
		<line class="multi03" x1="57.4" y1="67.1" x2="76.2" y2="67.1"/>
		<line class="multi03" x1="48.3" y1="57.8" x2="48.3" y2="76.4"/>
		<line class="multi03" x1="85.5" y1="57.8" x2="85.5" y2="76.4"/>
		<line class="multi03" x1="10.9" y1="57.8" x2="10.9" y2="76.4"/>
	</g>
</g>
</svg>
