<svg xmlns="http://www.w3.org/2000/svg" xmlns:xlink="http://www.w3.org/1999/xlink" x="0px" y="0px"
	 viewBox="0 0 100 100" style="enable-background:new 0 0 100 100;" xml:space="preserve">
<style type="text/css">
	.multi04{fill:none;stroke:currentcolor;stroke-width:3;stroke-linecap:round;stroke-linejoin:round;}
</style>
<g transform="translate(-1687.267 -3990.267)">
	<path class="multi04" d="M1729.9,4057.3c-0.1-6.9,2.5-13.5,7.4-18.3c4.7,4.7,7.4,11.2,7.4,17.9c0,0.2,0,0.3,0,0.5"/>
	<path class="multi04" d="M1737.3,4075.1c-14,0-25.3-11.3-25.3-25.3c0,0,0,0,0,0c6.7,0,13.1,2.7,17.9,7.4l0,0"/>
	<path class="multi04" d="M1744.7,4057.3c4.7-4.8,11.2-7.4,17.9-7.4c0,14-11.3,25.3-25.3,25.3l0,0"/>
	<line class="multi04" x1="1737.3" y1="4075.1" x2="1737.3" y2="4086.8"/>
	<path class="multi04" d="M1720.9,4033.2c-9-9-9-23.6,0-32.6c9-9,23.6-9,32.6,0c9,9,9,23.6,0,32.6"/>
	<path class="multi04" d="M1766.8,4019.9c3.5,1.1,6.7,3.1,9.3,5.7c9,9,9,23.6,0,32.6c-4.7,4.6-11.1,7.1-17.6,6.7"/>
	<path class="multi04" d="M1707.7,4019.1c-3.5,1.1-6.6,3-9.2,5.6c-9,9-9,23.6,0,32.6c4.5,4.5,10.8,7,17.2,6.7"/>
</g>
</svg>
