<svg xmlns="http://www.w3.org/2000/svg" xmlns:xlink="http://www.w3.org/1999/xlink" x="0px" y="0px" viewBox="0 0 100 100" style="enable-background:new 0 0 100 100;" xml:space="preserve">	<style type="text/css">	.arro{fill:currentcolor}	</style>	<g>		<g transform="translate(0 0)" class="arro">			<path d="M98.4,52.9L98.4,52.9c0.2-0.5,0.3-1,0.4-1.4c0,0,0-0.1,0-0.1c0.2-0.9,0.2-1.9,0-2.8c0,0,0-0.1,0-0.1   c-0.1-0.5-0.2-0.9-0.4-1.3l0-0.1c-0.2-0.4-0.4-0.9-0.7-1.2l0-0.1c-0.3-0.4-0.6-0.8-1-1.2L66.2,14.1c-3-3-7.8-3-10.8,0   c-3,3-3,7.8,0,10.8l17.5,17.5H8.6C4.4,42.4,1,45.8,1,50s3.4,7.6,7.6,7.6h64.3L55.4,75.2c-3,3-3,7.8,0,10.8c3,3,7.8,3,10.8,0   l30.5-30.5c0.4-0.4,0.7-0.7,1-1.2l0-0.1C98,53.8,98.2,53.4,98.4,52.9"></path>		</g>	</g></svg>