<svg xmlns="http://www.w3.org/2000/svg" xmlns:xlink="http://www.w3.org/1999/xlink" x="0px" y="0px" viewBox="0 0 218.7 85.1" style="enable-background:new 0 0 218.7 85.1;" xml:space="preserve"><style>	g{fill:currentcolor;}</style><g>	<g>		<path d="M199.7,34.7c-1.5,0.8-1.6,0.4-2.8,0.8c-26,10-21.4,8.6-33.5,11c-7.3,17.5-6.2,15.8-7.4,15.3   c0-0.4,0-0.8,0.1-1.1c2.6-18.3,1.1-16.2,6.3-15.4l3.2-7.2c-1.4,0.5-2.7,0.6-3.3-1c-1.5,1.1-3.1,2-5,1.5c-2.7,1.9-1.5,1.3-4.5,2.3   c-0.4,0.4-0.8,0.8-1.2,1.2c-0.8,0.7-2,0.6-2.7-0.2c-0.2-0.2-0.4-0.5-0.4-0.8c-0.5-1.5-0.3-4.3-0.8-4.6c-2.8,1.8-3.9,3.4-5.1,6.6   c-2-0.1,2.1-4.3-1.4-10.5C139,46,128.8,54.4,121.2,51c-1.9,5.8-6.8,20.8-10.8,25.4c-9.3,10.7-20.7-10.1-10.2-33.8l-8.7,2.8   l-1.8,6.7c-0.8,0-0.8-0.1-0.3-6.9c0-0.3,0.4-0.6,0.7-0.9c1.1-1,0.2,1.5,1.8-3.3c-1.5,0.5-2.9,2.1-4.3,0c-1,0.6-1.8,1.7-3,0.4   c-2.6,2-3.2,2.7-4.7,1.2c-1.1,1-2.3,1.7-3.8,0.5c-1,1.9-2.2,3.8-3.5,5.5c-1.6,2-3.8,1.4-4.1-1.3c-0.5-4.4-0.3-5.1-0.8-5.9   c-9.3,23.3-35.2,41-51.1,43.4c-30.4,4.5-18-39.7,30.6-53.7l1-4.9c0.8,0,0.6-0.1-0.1,4.8c8.1-1.2,15.7-1,19.4,6.5   c0.7-1,2.1-8.6-0.6-15C62.7,12.2,51.2,9,40.4,10.4C14.6,13.8-0.5,37.7,3.6,45.1l-0.2,0.1C-2.2,37.8,16.7,9.1,45.7,9.3   C57.2,9.4,67.1,15.6,69,27.2c1.1,6.8-0.9,11-0.6,13c0.9,7,1.1,7.8,1.3,9c1.1-0.7,1.5-0.3,4-4.1c2.1-3.1,1.3-3.4,2.5-6.3   c0.1-0.2,0.7-0.5,0.8-0.4c1.4,1.1-1.3,3.8-0.3,4.4c1.4,0.8,3-1.5,3.9-2.9c0.9,0.5,0.8,0,0.1,2.7c0.7,0.4,3.2-0.8,4.4-3.9   c0.9,0.3,0.8,0.1,0,2.7c1.4-0.3,2.6-1.3,3.1-2.6c0.9,0.2,0.6,0.4,0.3,2.5c2.2-0.4,4-1.8,4.7-3.9c12.2-34.4,13.5-23.9,9.9-14.1   c-5.6,15.3-7.7,10.7-11,20.4c5.6-1.7,5.8-1.8,8.2-2.5s9.1-19.7,29.6-21.8c7.2-19.6,8.9-23.4,10-15.7c-0.3,0.1-0.2,0.5-0.9-3.2   c-1.2-0.2-7,15.6-7.9,19c0.2,0.1,0.4,0.1,0.6,0.2c5.3,1,9.2,5.6,9.3,10.9c0.1,2.4,2.4,1.5,2.3,8.8c2.1-2.7,4.8-5.3,5.3-2   c0.3,2.1-0.1,5.4,2.1,4.2c0.4-0.3,0.8-0.6,1.2-0.9c-0.3-0.2-0.6-0.3-0.7-0.4c-2.7-1.8,3.1-5.7,2.1-1.2c0,0.2-0.1,0.4-0.2,0.8   c1.3-0.3,2.5-0.9,3.4-1.9c-1.2-2,0.9-3.5,1.5-3c0.8,0.6,0.1,1.7-0.3,2.9c3,0.1,4.7-1.5,5.9-4c1.1,0.3,0.7,0.6-0.4,3.4   c5.1,0.8,4.7-7.2,13.1-18.4c1.3-1.7,2.8-0.6,2.5,1.2c-0.6,3.5-3.7,9.7-7.9,14.1c-3.8,3.9-1.6-0.4-6.7,10.8   c8.3-0.5,26.8-9.4,34.8-11.2C199.3,33.8,199.6,34,199.7,34.7 M46.8,32.1C19.2,38.4-1.1,63.3,1.2,76.7c3.1,17.7,41,4,60.7-26.1   c2-3.1,5.7-10.5,5.1-12.2c-2.7-7.8-11.1-8-19.2-6.6c-1.2,4.4-2.6,8.8-4.3,13.1C42.3,44.3,43.7,43.9,46.8,32.1 M107.3,39.6   c-3.5,1.8-4.9,1.5-5.6,2.8c-7.6,15.1-4.6,30.6,0.4,35c7.7,6.8,14.7-17.2,17.9-27.2c-5.5-5.1-1-13.2,5.1-17.7   c0.8-0.6,0.5-0.1,4-10.8c0.4-1.3,0.5-1.3-0.1-1.3c-12.3,0.5-24.4,15.2-26.1,19.9C106.7,38.9,107,38.6,107.3,39.6 M121.5,50.3   c3,1.5,7.1-0.1,9.8-2.3c5.8-4.9,7.7-10.1,8.8-16.6c-3.8-2.8-8.6-1.7-12.6,0.8C126.8,32.6,127.1,32.2,121.5,50.3 M139.9,30.5   c0.6-4.9-4.4-10.3-9.1-9.9L127.5,31C131.7,29,135.7,27.9,139.9,30.5 M94.7,36.7c4.8-5.1,7.5-13.3,9.3-19.6   C106.5,8.7,96.4,28.6,94.7,36.7 M120.2,49.5l4.9-15.5C120,36.9,116,45.3,120.2,49.5 M169.2,34.1c4.2-3.9,7.2-8.8,8.6-14.4   C176.4,19,170,32.7,169.2,34.1 M157.5,57.5l4.5-11.3l-2.7-0.4C158.5,49.6,157.8,53.5,157.5,57.5 M151.3,40c1.3,0.3,1,0.7,1.5-1.9   l-0.2-0.1C151.8,38.4,151.3,39.1,151.3,40 M157.1,37.1c0.1,0.1,0,0.1,0.4-0.5C157.4,36.5,157.4,36.4,157.1,37.1"></path>		<path d="M203.4,38.7c3.5-0.8,14.4-2.5,15.3-1.1c-0.4,0.3-13.2,1.4-15.3,1.4L203.4,38.7"></path>	</g></g></svg>