<svg xmlns="http://www.w3.org/2000/svg" xmlns:xlink="http://www.w3.org/1999/xlink" x="0px" y="0px" viewBox="0 0 100 100" style="enable-background:new 0 0 100 100;" xml:space="preserve">	<g>		<path d="M0.8,21.7v33.9c0,2.4,2,4.4,4.4,4.4h10.6c2.3,0,4.1,1.8,4.1,4.1l0,0v14.5c0,2.3,1.8,4.1,4.1,4.1c0,0,0,0,0,0  h1c1.3,0,2.6-0.6,3.3-1.7l13-18.1c1.4-1.9,2.1-4.2,2.1-6.6V21.7c0-2.4-2-4.4-4.4-4.4c0,0,0,0,0,0H5.2C2.8,17.3,0.8,19.2,0.8,21.7"></path>		<path d="M56.5,21.7v33.9c0,2.4,2,4.4,4.4,4.4l0,0h10.6c2.3,0,4.1,1.8,4.1,4.1l0,0v14.5c0,2.3,1.8,4.1,4.1,4.1l0,0h1  c1.3,0,2.6-0.6,3.3-1.7l13-18.1c1.4-1.9,2.1-4.2,2.1-6.6V21.7c0-2.4-2-4.4-4.4-4.4c0,0,0,0,0,0H60.9C58.5,17.3,56.5,19.2,56.5,21.7  C56.5,21.7,56.5,21.7,56.5,21.7"></path>	</g></svg>