<svg xmlns="http://www.w3.org/2000/svg" xmlns:xlink="http://www.w3.org/1999/xlink" x="0px" y="0px"
	 viewBox="0 0 100 100" style="enable-background:new 0 0 100 100;" xml:space="preserve">
<path d="M2.4,52.9L2.4,52.9c-0.2-0.5-0.3-0.9-0.4-1.4c0,0,0,0,0-0.1c-0.2-0.9-0.2-1.8,0-2.7c0,0,0,0,0-0.1
	c0.1-0.4,0.2-0.9,0.4-1.3v-0.1c0.2-0.4,0.4-0.8,0.6-1.2v-0.1c0.3-0.4,0.6-0.8,0.9-1.2l30.1-30c2.9-2.9,7.7-2.9,10.6,0
	c2.9,2.9,2.9,7.7,0,10.6l0,0L27.5,42.5h63.2c4.1,0,7.5,3.4,7.5,7.5s-3.4,7.5-7.5,7.5H27.5l17.2,17.2c2.9,2.9,2.9,7.7,0,10.6
	s-7.7,2.9-10.6,0l0,0l-30-30c-0.3-0.4-0.6-0.7-0.9-1.2v-0.1C2.9,53.7,2.7,53.3,2.4,52.9"/>
</svg>
