<svg xmlns="http://www.w3.org/2000/svg" xmlns:xlink="http://www.w3.org/1999/xlink" x="0px" y="0px"
	 viewBox="0 0 100 100" style="enable-background:new 0 0 100 100;" xml:space="preserve">
<path d="M97.6,52.9L97.6,52.9c0.2-0.5,0.3-0.9,0.4-1.4c0,0,0,0,0-0.1c0.2-0.9,0.2-1.8,0-2.7c0,0,0,0,0-0.1
	c-0.1-0.4-0.2-0.9-0.4-1.3v-0.1c-0.2-0.4-0.4-0.8-0.6-1.2v-0.1c-0.3-0.4-0.6-0.8-0.9-1.2l-30.1-30c-2.9-2.9-7.7-2.9-10.6,0
	c-2.9,2.9-2.9,7.7,0,10.6l17.2,17.2H9.4c-4.1,0-7.5,3.4-7.5,7.5s3.4,7.5,7.5,7.5h63.2L55.3,74.7c-2.9,2.9-2.9,7.7,0,10.6
	c2.9,2.9,7.7,2.9,10.6,0l0,0l30-30c0.3-0.4,0.6-0.7,0.9-1.2v-0.1C97.1,53.7,97.3,53.3,97.6,52.9"/>
</svg>
