<svg xmlns="http://www.w3.org/2000/svg" xmlns:xlink="http://www.w3.org/1999/xlink" x="0px" y="0px" viewBox="0 0 100 100" style="enable-background:new 0 0 100 100;" xml:space="preserve">	<style type="text/css">	.up-arrow-0{fill:currentcolor;}	</style>	<g transform="translate(12) rotate(90)">		<g>			<g transform="translate(0 0)">				<path class="up-arrow-0" d="M2.4-35.1L2.4-35.1c-0.2-0.5-0.3-1-0.4-1.4c0,0,0-0.1,0-0.1c-0.2-0.9-0.2-1.9,0-2.8    c0,0,0-0.1,0-0.1c0.1-0.5,0.2-0.9,0.4-1.3l0-0.1c0.2-0.4,0.4-0.9,0.6-1.3l0.1,0c0.3-0.4,0.6-0.8,1-1.2l30-30.3    c2.9-3,7.7-3,10.6,0c2.9,3,2.9,7.8,0,10.7L27.5-45.6h63.2c4.1,0,7.5,3.4,7.5,7.6s-3.4,7.6-7.5,7.6H27.5l17.2,17.4    c2.9,3,2.9,7.8,0,10.7c-2.9,3-7.7,3-10.6,0L4-32.6c-0.3-0.4-0.7-0.8-0.9-1.2l0-0.1C2.8-34.3,2.6-34.7,2.4-35.1"></path>			</g>		</g>	</g></svg>