<svg xmlns="http://www.w3.org/2000/svg" xmlns:xlink="http://www.w3.org/1999/xlink" x="0px" y="0px" viewBox="0 0 100 100" style="enable-background:new 0 0 100 100;" xml:space="preserve">	 <path d="M50,97.5c-5.1,0-10.2-2-14.3-6C8.2,64.3-2,42.2,4.7,24C8,13.9,15.8,6,25.5,2.9c11.1-2.1,19.9,4.7,24.7,9.6 C55,7.7,63.7,1.1,74.4,3.1C84.5,6,92.3,13.7,95.8,23.8c6.6,18.1-3.6,40.2-31.5,67.7C60.2,95.5,55.1,97.5,50,97.5z M29.9,13 c-0.7,0-1.4,0.1-2.1,0.2c-6.2,2-11.5,7.4-13.8,14.5c-5,13.7,4.6,32.5,28.4,56c4.4,4.3,11,4.3,15.3,0C81.8,59.9,91.5,41,86.6,27.6 c-2.4-7-7.7-12.3-14.3-14.2c-9.5-1.8-17.8,9.7-18.2,10.2c-0.9,1.3-2.1,1.9-4,2.1c-1.6,0-3-0.8-3.9-2.2C46.2,23.4,38.9,13,29.9,13z"></path></svg>