<svg xmlns="http://www.w3.org/2000/svg" xmlns:xlink="http://www.w3.org/1999/xlink" x="0px" y="0px" viewBox="0 0 33.4 32" style="enable-background:new 0 0 33.4 32;" xml:space="preserve"><path d="M30.3,13.6H29v-1.3c0-3.3-1.3-6.4-3.6-8.7S20,0,16.7,0l0,0C13.4,0,10.3,1.3,8,3.6C5.7,6,4.4,9.1,4.4,12.3v1.3H3.1 c-0.8,0-1.6,0.3-2.2,0.9C0.3,15.1,0,15.9,0,16.7v5.1c0,0.8,0.3,1.6,0.9,2.2s1.3,0.9,2.2,0.9h1.4c0.4,2.9,2.8,5.2,5.7,5.6 c0.4,0.9,1.2,1.5,2.3,1.5h1.6c1.3,0,2.4-1.1,2.4-2.4s-1.1-2.4-2.4-2.4h-1.6c-1,0-1.8,0.6-2.2,1.4c-2.2-0.4-3.9-2.3-3.9-4.6V12.4 c0-2.7,1.1-5.3,3-7.3c1.9-1.9,4.5-3,7.3-3l0,0c2.7,0,5.3,1.1,7.3,3c1.9,1.9,3,4.5,3,7.3v11.4c0,0.6,0.5,1.2,1.2,1.2h2.1 c1.7,0,3.1-1.4,3.1-3.1v-5.1C33.4,15,32,13.6,30.3,13.6z M12.5,29.1h1.6c0.2,0,0.4,0.2,0.4,0.4S14.3,30,14.1,30h-1.6 c-0.2,0-0.4-0.2-0.4-0.4S12.2,29.1,12.5,29.1z M2,21.8v-5.2c0-0.3,0.1-0.6,0.3-0.8s0.5-0.3,0.8-0.3h1.3v7.3H3.1 C2.5,22.9,2,22.4,2,21.8z M31.4,21.8c0,0.6-0.5,1.1-1.1,1.1H29v-7.3h1.3c0.6,0,1.1,0.5,1.1,1.1V21.8z"></path></svg>