<svg xmlns="http://www.w3.org/2000/svg" xmlns:xlink="http://www.w3.org/1999/xlink" x="0px" y="0px" viewBox="0 0 46.6 32" style="enable-background:new 0 0 46.6 32;" xml:space="preserve"><path d="M46.2,2.2c0.1-0.3,0-0.6-0.2-0.8S45.6,1.1,45.3,1c-0.7-0.6-1.6-1-2.7-1H4C3,0,2,0.4,1.3,1C1,1,0.8,1.1,0.6,1.4 C0.4,1.6,0.4,1.9,0.4,2.2C0.2,2.8,0,3.4,0,4v24c0,2.2,1.8,4,4,4h38.6c2.2,0,4-1.8,4-4V4C46.6,3.4,46.4,2.8,46.2,2.2z M42.6,2 c0.3,0,0.6,0.1,0.8,0.2L23.9,17.9c-0.4,0.3-0.9,0.3-1.3,0L3.2,2.2C3.4,2.1,3.7,2,4,2H42.6z M44.6,28c0,1.1-0.9,2-2,2H4 c-1.1,0-2-0.9-2-2V4c0-0.1,0-0.1,0-0.2l19.3,15.6c0.6,0.5,1.3,0.7,2,0.7s1.4-0.2,1.9-0.7L44.6,3.8c0,0.1,0,0.1,0,0.2V28z"></path></svg>