<svg xmlns="http://www.w3.org/2000/svg" xmlns:xlink="http://www.w3.org/1999/xlink" x="0px" y="0px" viewBox="0 0 57 32" style="enable-background:new 0 0 57 32;" xml:space="preserve">	<path d="M56.6,14.9L49.9,4.1c-0.3-0.5-0.8-0.8-1.4-0.8h-8.7V1.2c0-0.7-0.5-1.2-1.2-1.2H10.2c-0.6,0-1,0.4-1,1s0.4,1,1,1h27.6v23.3  H27c-0.5-2.6-2.8-4.5-5.5-4.5s-5,1.9-5.5,4.5h-5.7c-0.6,0-1,0.4-1,1s0.4,1,1,1h5.7c0.4,2.7,2.7,4.7,5.5,4.7s5.1-2,5.5-4.7h11.9  c0,0,0,0,0,0s0,0,0,0h2.9c0.4,2.7,2.7,4.7,5.5,4.7c2.8,0,5.1-2,5.5-4.7h1c1.8,0,3.2-1.4,3.2-3.2v-7.7C57,15.9,56.9,15.4,56.6,14.9z   M50.8,9.4l3.4,5.5H47l-1-5.5L50.8,9.4C50.8,9.4,50.8,9.4,50.8,9.4z M21.5,30c-2,0-3.6-1.6-3.6-3.6c0-2,1.6-3.6,3.6-3.6  s3.6,1.6,3.6,3.6C25.1,28.4,23.4,30,21.5,30z M47.3,30c-2,0-3.6-1.6-3.6-3.6s1.6-3.6,3.6-3.6s3.6,1.6,3.6,3.6S49.3,30,47.3,30z   M53.9,25.3h-1c-0.5-2.6-2.8-4.5-5.5-4.5c-2.7,0-5,1.9-5.5,4.5h-2v-20h8.5l1.2,2h-4.2c-0.8,0-1.4,0.6-1.4,1.4l1.2,6.7  c0.1,0.8,0.8,1.3,1.6,1.3H55v7.3C55,24.8,54.5,25.3,53.9,25.3z"></path>	<path d="M4,6.6h6.2c0.6,0,1-0.4,1-1s-0.4-1-1-1H4c-0.6,0-1,0.4-1,1S3.5,6.6,4,6.6z"></path>	<path d="M5.2,11c0,0.6,0.4,1,1,1h6.6c0.6,0,1-0.4,1-1s-0.4-1-1-1H6.2C5.6,10,5.2,10.4,5.2,11z"></path>	<path d="M13.8,21.7c0-0.6-0.4-1-1-1H4.2c-0.6,0-1,0.4-1,1s0.4,1,1,1h8.6C13.4,22.7,13.8,22.3,13.8,21.7z"></path>	<path d="M10.8,16.4c0-0.6-0.4-1-1-1H1c-0.6,0-1,0.4-1,1c0,0.6,0.4,1,1,1h8.8C10.4,17.4,10.8,16.9,10.8,16.4z"></path></svg>