<svg xmlns="http://www.w3.org/2000/svg" xmlns:xlink="http://www.w3.org/1999/xlink" id="Layer_1" x="0px" y="0px" viewBox="0 0 100 100" style="enable-background:new 0 0 100 100;" xml:space="preserve"><path d="M96.1,23.5c0.1-0.6,0-1.2-0.4-1.6c-0.4-0.5-0.9-0.7-1.4-0.7C92.9,19.8,91,19,89,19H11.4c-2.1,0-3.9,0.8-5.4,2.1 c-0.5,0-1,0.3-1.4,0.7c-0.4,0.5-0.5,1.1-0.4,1.6c-0.5,1.1-0.9,2.3-0.9,3.6v48.2c0,4.4,3.6,8,8,8H89c4.4,0,8-3.6,8-8V27 C97,25.7,96.7,24.5,96.1,23.5z M89,23c0.6,0,1.1,0.1,1.6,0.4L51.4,55c-0.7,0.6-1.8,0.6-2.6-0.1L9.7,23.4c0.5-0.2,1.1-0.4,1.6-0.4H89 z M93,75.3c0,2.2-1.8,4-4,4H11.4c-2.2,0-4-1.8-4-4V27c0-0.1,0-0.3,0-0.4l38.9,31.4c1.1,1,2.5,1.5,3.9,1.5c1.4,0,2.8-0.5,3.8-1.4 l38.9-31.4c0,0.1,0,0.2,0,0.4V75.3z"></path></svg>