<svg xmlns="http://www.w3.org/2000/svg" xmlns:xlink="http://www.w3.org/1999/xlink" x="0px" y="0px" viewBox="0 0 36.3 32" style="enable-background:new 0 0 36.3 32;" xml:space="preserve">	<path d="M33.4,3.1h-2.7V2.7c0-1.5-1.2-2.7-2.7-2.7c0,0,0,0,0,0c-1.5,0-2.7,1.2-2.7,2.7v0.5H10.9V2.7C10.9,1.2,9.7,0,8.2,0  C6.8,0,5.6,1.2,5.6,2.7v0.5H2.9C1.3,3.1,0,4.4,0,6v23.1C0,30.7,1.3,32,2.9,32h30.5c1.6,0,2.9-1.3,2.9-2.9V6  C36.3,4.4,35,3.1,33.4,3.1z M27.4,2.7c0-0.4,0.3-0.7,0.7-0.7h0c0.4,0,0.7,0.3,0.7,0.7v2.9c0,0.4-0.3,0.7-0.7,0.7s-0.7-0.3-0.7-0.7  V2.7z M7.6,2.7C7.6,2.3,7.9,2,8.2,2c0.4,0,0.7,0.3,0.7,0.7v2.9c0,0.4-0.3,0.7-0.7,0.7c-0.4,0-0.7-0.3-0.7-0.7V2.7z M2.9,5.1h2.7  v0.5c0,1.5,1.2,2.7,2.7,2.7c1.5,0,2.7-1.2,2.7-2.7V5.1h14.5v0.5c0,1.5,1.2,2.7,2.7,2.7s2.7-1.2,2.7-2.7V5.1h2.7  c0.5,0,0.9,0.4,0.9,0.9v4.2H2V6C2,5.5,2.4,5.1,2.9,5.1z M33.4,30H2.9C2.4,30,2,29.6,2,29.1V12.2h32.3v16.9  C34.3,29.6,33.9,30,33.4,30z"></path>	<path d="M7,14.2H5.7c-1.1,0-2,0.9-2,2v1.3c0,1.1,0.9,2,2,2H7c1.1,0,2-0.9,2-2v-1.3C9,15.1,8.1,14.2,7,14.2z M7,17.5H5.7l0-1.3h0H7  V17.5z"></path>	<path d="M7,22.7H5.7c-1.1,0-2,0.9-2,2V26c0,1.1,0.9,2,2,2H7c1.1,0,2-0.9,2-2v-1.3C9,23.6,8.1,22.7,7,22.7z M7,26H5.7l0-1.3h0H7V26z  "></path>	<path d="M14.8,14.2h-1.3c-1.1,0-2,0.9-2,2v1.3c0,1.1,0.9,2,2,2h1.3c1.1,0,2-0.9,2-2v-1.3C16.8,15.1,15.9,14.2,14.8,14.2z   M14.8,17.5h-1.3l0-1.3h0h1.3V17.5z"></path>	<path d="M14.8,22.7h-1.3c-1.1,0-2,0.9-2,2V26c0,1.1,0.9,2,2,2h1.3c1.1,0,2-0.9,2-2v-1.3C16.8,23.6,15.9,22.7,14.8,22.7z M14.8,26  h-1.3l0-1.3h0h1.3V26z"></path>	<path d="M22.6,14.2h-1.3c-1.1,0-2,0.9-2,2v1.3c0,1.1,0.9,2,2,2h1.3c1.1,0,2-0.9,2-2v-1.3C24.6,15.1,23.7,14.2,22.6,14.2z   M22.6,17.5h-1.3l0-1.3h0h1.3V17.5z"></path>	<path d="M22.6,22.7h-1.3c-1.1,0-2,0.9-2,2V26c0,1.1,0.9,2,2,2h1.3c1.1,0,2-0.9,2-2v-1.3C24.6,23.6,23.7,22.7,22.6,22.7z M22.6,26  h-1.3l0-1.3h0h1.3V26z"></path>	<path d="M30.4,14.2h-1.3c-1.1,0-2,0.9-2,2v1.3c0,1.1,0.9,2,2,2h1.3c1.1,0,2-0.9,2-2v-1.3C32.4,15.1,31.5,14.2,30.4,14.2z   M30.4,17.5h-1.3l0-1.3h0h1.3V17.5z"></path>	<path d="M30.4,22.7h-1.3c-1.1,0-2,0.9-2,2V26c0,1.1,0.9,2,2,2h1.3c1.1,0,2-0.9,2-2v-1.3C32.4,23.6,31.5,22.7,30.4,22.7z M30.4,26  h-1.3l0-1.3h0h1.3V26z"></path></svg>